<svg width="194" height="38" viewBox="0 0 194 38" fill="none" xmlns="http://www.w3.org/2000/svg">
<path d="M14.4012 0C15.0549 0 15.5849 0.528907 15.5849 1.18135V6.49741C15.5849 7.14985 15.0549 7.67876 14.4012 7.67876C13.7475 7.67876 13.2175 7.14985 13.2175 6.49741V1.18135C13.2175 0.528907 13.7475 0 14.4012 0Z" fill="#F3ECFE"/>
<path d="M6.70726 12.2073C6.70726 11.5548 6.17731 11.0259 5.52359 11.0259C4.86987 11.0259 4.33993 11.5548 4.33993 12.2073V22.0518C4.33993 22.7043 4.86987 23.2332 5.52359 23.2332C6.17731 23.2332 6.70726 22.7043 6.70726 22.0518V12.2073Z" fill="#F3ECFE"/>
<path d="M2.17005 16.4404C2.17005 15.8423 1.68427 15.3575 1.08503 15.3575C0.485783 15.3575 0 15.8423 0 16.4404V22.1503C0 22.7483 0.485783 23.2332 1.08503 23.2332C1.68427 23.2332 2.17005 22.7483 2.17005 22.1503V16.4404Z" fill="#F3ECFE"/>
<path d="M6.70726 26.3834C6.70726 25.731 6.17731 25.2021 5.52359 25.2021C4.86987 25.2021 4.33993 25.731 4.33993 26.3834V27.9585C4.33993 28.611 4.86987 29.1399 5.52359 29.1399C6.17731 29.1399 6.70726 28.611 6.70726 27.9585V26.3834Z" fill="#F3ECFE"/>
<path d="M18.9389 28.1554C19.5926 28.1554 20.1225 28.6843 20.1225 29.3368V31.1088C20.1225 31.7612 19.5926 32.2901 18.9389 32.2901C18.2851 32.2901 17.7552 31.7612 17.7552 31.1088V29.3368C17.7552 28.6843 18.2851 28.1554 18.9389 28.1554Z" fill="#F3ECFE"/>
<path d="M15.5849 30.3212C15.5849 29.6688 15.0549 29.1399 14.4012 29.1399C13.7475 29.1399 13.2175 29.6688 13.2175 30.3212V36.8186C13.2175 37.4711 13.7475 38 14.4012 38C15.0549 38 15.5849 37.4711 15.5849 36.8186V30.3212Z" fill="#F3ECFE"/>
<path d="M23.3773 14.9637C23.9766 14.9637 24.4623 15.4485 24.4623 16.0466V28.057C24.4623 28.6551 23.9766 29.1399 23.3773 29.1399C22.7781 29.1399 22.2923 28.6551 22.2923 28.057V16.0466C22.2923 15.4485 22.7781 14.9637 23.3773 14.9637Z" fill="#F3ECFE"/>
<path d="M18.9265 6.06424C19.2225 6.06424 19.5064 6.18161 19.7157 6.39053C19.9251 6.59945 20.0427 6.8828 20.0427 7.17826V25.7451C20.0427 26.0406 19.9251 26.3239 19.7157 26.5328C19.5064 26.7417 19.2225 26.8591 18.9265 26.8591C18.6304 26.8591 18.3465 26.7417 18.1372 26.5328C17.9279 26.3239 17.8103 26.0406 17.8103 25.7451V19.6385L13.3415 15.1711V10.299C13.4382 10.0646 13.5915 9.85776 13.7878 9.69689C13.9424 9.58526 14.1204 9.51011 14.3083 9.4771C14.4963 9.44408 14.6893 9.45407 14.8728 9.5063C15.1709 9.59495 15.4232 9.79525 15.5767 10.0653C15.5767 10.0653 15.6132 10.1413 15.7272 14.6394C15.7272 14.6394 16.3005 15.1711 16.8221 15.1711C17.3437 15.1711 17.814 14.6394 17.814 14.6394L17.8103 7.17727C17.8105 6.88199 17.9282 6.59889 18.1375 6.39018C18.3468 6.18148 18.6306 6.06424 18.9265 6.06424Z" fill="#F3ECFE"/>
<path d="M10.7871 5.83332C10.5777 5.6244 10.2938 5.50703 9.99779 5.50703C9.70176 5.50703 9.41785 5.6244 9.20852 5.83332C8.99919 6.04224 8.88159 6.32559 8.88159 6.62104V32.058C8.88159 32.3535 8.99919 32.6368 9.20852 32.8457C9.41785 33.0547 9.70176 33.172 9.99779 33.172C10.2938 33.172 10.5777 33.0547 10.7871 32.8457C10.9964 32.6368 11.114 32.3535 11.114 32.058L11.2126 21.3016C11.2126 21.3016 11.6476 20.6848 12.2898 20.7279C12.4839 20.7461 12.6716 20.8069 12.8393 20.9061C13.007 21.0053 13.1506 21.1404 13.2598 21.3016L13.3742 26.2344C13.3742 26.2344 13.9662 26.9235 14.5103 26.9235C15.0544 26.9235 15.5511 26.2344 15.5511 26.2344L15.5993 20.4485L11.1872 16.0539L11.114 6.62104C11.114 6.32559 10.9964 6.04224 10.7871 5.83332Z" fill="#F3ECFE"/>
<path d="M29 17.8187C29 17.2206 28.5142 16.7358 27.915 16.7358C27.3157 16.7358 26.8299 17.2206 26.8299 17.8187V20.772C26.8299 21.3701 27.3157 21.8549 27.915 21.8549C28.5142 21.8549 29 21.3701 29 20.772V17.8187Z" fill="#F3ECFE"/>
<path d="M23.3773 9.45076C23.9766 9.45076 24.4623 9.93559 24.4623 10.5337V12.6995C24.4623 13.2975 23.9766 13.7824 23.3773 13.7824C22.7781 13.7824 22.2923 13.2975 22.2923 12.6995V10.5337C22.2923 9.93559 22.7781 9.45076 23.3773 9.45076Z" fill="#F3ECFE"/>
<path d="M59.5625 26.3076C58.4893 26.3076 57.5493 26.1367 56.7427 25.7949C55.936 25.4463 55.2969 24.9644 54.8252 24.3491C54.3535 23.7339 54.0835 23.0195 54.0151 22.2061L54.0049 22.0728H55.8506L55.8608 22.2061C55.9224 22.6982 56.1172 23.1255 56.4453 23.4878C56.7734 23.8433 57.2144 24.1201 57.7681 24.3184C58.3218 24.5098 58.9541 24.6055 59.665 24.6055C60.3486 24.6055 60.9502 24.5029 61.4697 24.2979C61.9961 24.0859 62.4062 23.7886 62.7002 23.4058C62.9941 23.0229 63.1411 22.582 63.1411 22.083V22.0728C63.1411 21.4438 62.9155 20.9277 62.4644 20.5244C62.0132 20.1143 61.2783 19.7964 60.2598 19.5708L58.6191 19.2119C57.1494 18.8838 56.0728 18.3813 55.3892 17.7046C54.7124 17.021 54.374 16.1426 54.374 15.0693V15.0591C54.3809 14.2388 54.603 13.5176 55.0405 12.8955C55.4849 12.2666 56.0967 11.7778 56.876 11.4292C57.6621 11.0737 58.5645 10.896 59.583 10.896C60.5605 10.896 61.4287 11.0703 62.1875 11.4189C62.9463 11.7676 63.5479 12.2427 63.9922 12.8442C64.4434 13.4458 64.6963 14.1294 64.751 14.895L64.7612 15.0488H62.9155L62.895 14.9053C62.8198 14.4404 62.6387 14.0371 62.3516 13.6953C62.0645 13.3467 61.6816 13.0767 61.2031 12.8853C60.7246 12.687 60.1675 12.5913 59.5317 12.5981C58.9028 12.5981 58.3423 12.6973 57.8501 12.8955C57.3579 13.0869 56.9683 13.3604 56.6812 13.7158C56.4009 14.0713 56.2607 14.502 56.2607 15.0078V15.0181C56.2607 15.6128 56.4829 16.1084 56.9272 16.5049C57.3716 16.9014 58.0894 17.209 59.0806 17.4277L60.7212 17.7866C61.7466 18.0122 62.5737 18.3062 63.2026 18.6685C63.8315 19.0308 64.293 19.4785 64.5869 20.0117C64.8809 20.5381 65.0278 21.1636 65.0278 21.8882V21.8984C65.0278 22.8008 64.8022 23.5835 64.3511 24.2466C63.9067 24.9028 63.2744 25.4121 62.4541 25.7744C61.6338 26.1299 60.6699 26.3076 59.5625 26.3076ZM72.0107 26.1948C70.9854 26.1948 70.0933 25.9692 69.3345 25.5181C68.5825 25.0601 67.998 24.4072 67.5811 23.5596C67.1709 22.7119 66.9658 21.7104 66.9658 20.5552V20.5347C66.9658 19.3726 67.1709 18.3711 67.5811 17.5303C67.998 16.6826 68.5825 16.0332 69.3345 15.582C70.0933 15.124 70.9819 14.895 72.0005 14.895C73.0327 14.895 73.9248 15.124 74.6768 15.582C75.4287 16.0332 76.0098 16.6826 76.4199 17.5303C76.8369 18.3711 77.0454 19.3726 77.0454 20.5347V20.5552C77.0454 21.7173 76.8369 22.7222 76.4199 23.5698C76.0098 24.4106 75.4287 25.0601 74.6768 25.5181C73.9248 25.9692 73.0361 26.1948 72.0107 26.1948ZM72.0107 24.6157C72.6807 24.6157 73.2549 24.4551 73.7334 24.1338C74.2119 23.8125 74.5776 23.3511 74.8306 22.7495C75.0903 22.1411 75.2202 21.4097 75.2202 20.5552V20.5347C75.2202 19.6733 75.0903 18.9419 74.8306 18.3403C74.5776 17.7319 74.2119 17.2705 73.7334 16.9561C73.2549 16.6348 72.6772 16.4741 72.0005 16.4741C71.3374 16.4741 70.7666 16.6348 70.2881 16.9561C69.8096 17.2773 69.4404 17.7388 69.1807 18.3403C68.9209 18.9419 68.791 19.6733 68.791 20.5347V20.5552C68.791 21.4097 68.9209 22.1411 69.1807 22.7495C69.4404 23.3511 69.8096 23.8125 70.2881 24.1338C70.7666 24.4551 71.3408 24.6157 72.0107 24.6157ZM83.126 26.1948C82.3125 26.1948 81.6255 26.0376 81.0649 25.7231C80.5044 25.4019 80.0806 24.9404 79.7935 24.3389C79.5063 23.7305 79.3628 23.0059 79.3628 22.165V15.1001H81.147V21.7754C81.147 22.7188 81.3418 23.4297 81.7314 23.9082C82.1279 24.3799 82.7568 24.6157 83.6182 24.6157C84.083 24.6157 84.4932 24.5439 84.8486 24.4004C85.2109 24.2568 85.5151 24.0518 85.7612 23.7852C86.0142 23.5186 86.2021 23.1973 86.3252 22.8213C86.4551 22.4385 86.52 22.0112 86.52 21.5396V15.1001H88.3042V26H86.52V24.4004H86.4072C86.2227 24.7695 85.9766 25.0908 85.6689 25.3643C85.3682 25.6309 85.0024 25.8359 84.5718 25.9795C84.1479 26.123 83.666 26.1948 83.126 26.1948ZM91.2573 26V15.1001H93.0415V16.6997H93.1646C93.4448 16.146 93.8516 15.7085 94.3848 15.3872C94.918 15.0591 95.5913 14.895 96.4048 14.895C97.6216 14.895 98.5581 15.2505 99.2144 15.9614C99.8774 16.6655 100.209 17.6567 100.209 18.9351V26H98.4248V19.3247C98.4248 18.3745 98.2163 17.6636 97.7993 17.1919C97.3823 16.7134 96.7432 16.4741 95.8818 16.4741C95.3076 16.4741 94.8086 16.6006 94.3848 16.8535C93.9609 17.1064 93.6294 17.4619 93.3901 17.9199C93.1577 18.3779 93.0415 18.9248 93.0415 19.5605V26H91.2573ZM107.13 26.1948C106.208 26.1948 105.401 25.9624 104.71 25.4976C104.02 25.0327 103.483 24.3765 103.101 23.5288C102.718 22.6812 102.526 21.6899 102.526 20.5552V20.5347C102.526 19.3931 102.718 18.4019 103.101 17.561C103.483 16.7134 104.017 16.0571 104.7 15.5923C105.391 15.1274 106.194 14.895 107.11 14.895C107.616 14.895 108.091 14.9771 108.535 15.1411C108.979 15.2983 109.373 15.5239 109.714 15.8179C110.063 16.105 110.34 16.4502 110.545 16.8535H110.668V10.8037H112.452V26H110.668V24.2158H110.545C110.326 24.6328 110.046 24.9883 109.704 25.2822C109.362 25.5762 108.976 25.8018 108.545 25.959C108.115 26.1162 107.643 26.1948 107.13 26.1948ZM107.51 24.6157C108.159 24.6157 108.72 24.4517 109.191 24.1235C109.67 23.7886 110.039 23.3169 110.299 22.7085C110.565 22.1001 110.699 21.3823 110.699 20.5552V20.5347C110.699 19.7075 110.565 18.9897 110.299 18.3813C110.039 17.7729 109.67 17.3047 109.191 16.9766C108.72 16.6416 108.159 16.4741 107.51 16.4741C106.86 16.4741 106.296 16.6382 105.818 16.9663C105.346 17.2944 104.984 17.7627 104.731 18.3711C104.478 18.9727 104.352 19.6938 104.352 20.5347V20.5552C104.352 21.396 104.478 22.1206 104.731 22.729C104.984 23.3374 105.346 23.8057 105.818 24.1338C106.296 24.4551 106.86 24.6157 107.51 24.6157ZM119.855 26L125.331 11.2036H126.726V13.5312H126.182L121.793 26H119.855ZM122.347 21.7651L122.942 20.1963H129.576L130.171 21.7651H122.347ZM130.694 26L126.305 13.5312V11.2036H127.156L132.632 26H130.694ZM134.734 26V10.8037H136.518V26H134.734ZM139.656 26V10.8037H141.44V26H139.656ZM144.547 26V15.1001H146.331V26H144.547ZM145.449 13.0903C145.121 13.0903 144.841 12.9741 144.608 12.7417C144.376 12.5024 144.26 12.2222 144.26 11.9009C144.26 11.5659 144.376 11.2856 144.608 11.0601C144.841 10.8276 145.121 10.7114 145.449 10.7114C145.777 10.7114 146.054 10.8276 146.28 11.0601C146.512 11.2856 146.628 11.5659 146.628 11.9009C146.628 12.2222 146.512 12.5024 146.28 12.7417C146.054 12.9741 145.777 13.0903 145.449 13.0903ZM152.401 26.1948C151.704 26.1948 151.082 26.0615 150.535 25.7949C149.988 25.5283 149.558 25.1523 149.243 24.667C148.929 24.1748 148.771 23.6006 148.771 22.9443V22.9238C148.771 22.2812 148.925 21.731 149.233 21.2729C149.547 20.8149 149.999 20.4561 150.586 20.1963C151.181 19.9297 151.899 19.7725 152.74 19.7246L156.749 19.4888V20.8936L152.945 21.1294C152.152 21.1772 151.561 21.3516 151.171 21.6523C150.788 21.9531 150.597 22.3667 150.597 22.8931V22.9136C150.597 23.4604 150.798 23.8877 151.202 24.1953C151.612 24.4961 152.138 24.6465 152.781 24.6465C153.375 24.6465 153.902 24.5269 154.36 24.2876C154.825 24.0483 155.19 23.7236 155.457 23.3135C155.724 22.8965 155.857 22.4282 155.857 21.9087V18.5762C155.857 17.9062 155.652 17.3901 155.242 17.0278C154.832 16.6587 154.23 16.4741 153.437 16.4741C152.767 16.4741 152.22 16.604 151.796 16.8638C151.373 17.1235 151.096 17.479 150.966 17.9302L150.956 17.9814H149.192L149.202 17.8994C149.284 17.3184 149.51 16.8022 149.879 16.3511C150.248 15.8999 150.74 15.5444 151.355 15.2847C151.971 15.0249 152.678 14.895 153.478 14.895C154.36 14.895 155.108 15.042 155.724 15.3359C156.346 15.623 156.821 16.0366 157.149 16.5767C157.477 17.1167 157.641 17.7593 157.641 18.5044V26H155.857V24.3286H155.744C155.519 24.7183 155.238 25.0532 154.903 25.3335C154.568 25.6138 154.189 25.8291 153.765 25.9795C153.348 26.123 152.894 26.1948 152.401 26.1948ZM160.533 26V15.1001H162.317V16.6997H162.44C162.72 16.146 163.127 15.7085 163.66 15.3872C164.193 15.0591 164.867 14.895 165.68 14.895C166.897 14.895 167.833 15.2505 168.49 15.9614C169.153 16.6655 169.484 17.6567 169.484 18.9351V26H167.7V19.3247C167.7 18.3745 167.492 17.6636 167.075 17.1919C166.658 16.7134 166.019 16.4741 165.157 16.4741C164.583 16.4741 164.084 16.6006 163.66 16.8535C163.236 17.1064 162.905 17.4619 162.666 17.9199C162.433 18.3779 162.317 18.9248 162.317 19.5605V26H160.533ZM176.826 26.1948C175.808 26.1948 174.922 25.9624 174.17 25.4976C173.418 25.0327 172.834 24.3765 172.417 23.5288C172.007 22.6812 171.802 21.6797 171.802 20.5244V20.5039C171.802 19.3691 172.007 18.3813 172.417 17.5405C172.834 16.6997 173.418 16.0503 174.17 15.5923C174.922 15.1274 175.804 14.895 176.816 14.895C177.711 14.895 178.48 15.0591 179.123 15.3872C179.766 15.7153 180.278 16.146 180.661 16.6792C181.044 17.2124 181.283 17.8003 181.379 18.4429L181.389 18.5146H179.625L179.605 18.4634C179.475 17.9165 179.174 17.4482 178.703 17.0586C178.238 16.6689 177.609 16.4741 176.816 16.4741C176.173 16.4741 175.613 16.6416 175.134 16.9766C174.656 17.3047 174.283 17.7729 174.017 18.3813C173.757 18.9829 173.627 19.6938 173.627 20.5142V20.5347C173.627 21.3755 173.76 22.1001 174.027 22.7085C174.293 23.3169 174.666 23.7886 175.145 24.1235C175.623 24.4517 176.184 24.6157 176.826 24.6157C177.564 24.6157 178.166 24.4482 178.631 24.1133C179.096 23.7715 179.42 23.2964 179.605 22.688L179.625 22.6162L181.389 22.606L181.369 22.7085C181.239 23.3784 180.979 23.9766 180.589 24.5029C180.2 25.0293 179.69 25.4429 179.062 25.7437C178.433 26.0444 177.688 26.1948 176.826 26.1948ZM188.095 26.1948C187.056 26.1948 186.161 25.9658 185.409 25.5078C184.664 25.0498 184.089 24.4004 183.686 23.5596C183.283 22.7188 183.081 21.7275 183.081 20.5859V20.5757C183.081 19.4546 183.283 18.4668 183.686 17.6123C184.089 16.7578 184.657 16.0913 185.388 15.6128C186.126 15.1343 186.991 14.895 187.982 14.895C188.974 14.895 189.825 15.124 190.536 15.582C191.253 16.04 191.8 16.6826 192.176 17.5098C192.559 18.3301 192.75 19.2837 192.75 20.3706V21.0474H183.994V19.6323H191.858L190.966 20.9346V20.2373C190.966 19.3828 190.836 18.6787 190.577 18.125C190.324 17.5713 189.972 17.1611 189.521 16.8945C189.069 16.6211 188.553 16.4844 187.972 16.4844C187.384 16.4844 186.858 16.6279 186.393 16.915C185.935 17.1953 185.573 17.6157 185.306 18.1763C185.04 18.7368 184.906 19.4238 184.906 20.2373V20.9346C184.906 21.707 185.036 22.3667 185.296 22.9136C185.562 23.4604 185.935 23.8809 186.414 24.1748C186.899 24.4688 187.473 24.6157 188.136 24.6157C188.615 24.6157 189.035 24.5474 189.397 24.4106C189.767 24.2739 190.071 24.0962 190.31 23.8774C190.549 23.6519 190.717 23.4126 190.812 23.1597L190.854 23.0674H192.617L192.597 23.1597C192.508 23.5562 192.34 23.9355 192.094 24.2979C191.848 24.6602 191.53 24.9849 191.141 25.272C190.758 25.5591 190.31 25.7847 189.797 25.9487C189.285 26.1128 188.717 26.1948 188.095 26.1948Z" fill="#F3ECFE"/>
</svg>
