<svg width="307" height="304" viewBox="0 0 307 304" fill="none" xmlns="http://www.w3.org/2000/svg">
<g filter="url(#filter0_f_2101_9712)">
<path d="M243 152C243 200.601 203.601 240 155 240C106.399 240 67 200.601 67 152C67 103.399 106.399 64 155 64C203.601 64 243 103.399 243 152Z" fill="url(#paint0_radial_2101_9712)"/>
</g>
<rect opacity="0.1" x="27.75" y="27.75" width="122.5" height="58.5" rx="15.25" stroke="#F8F8F8" stroke-width="1.5"/>
<rect opacity="0.1" x="155.75" y="27.75" width="58.5" height="58.5" rx="15.25" stroke="#F8F8F8" stroke-width="1.5"/>
<rect opacity="0.1" x="219.75" y="27.75" width="58.5" height="58.5" rx="15.25" stroke="#F8F8F8" stroke-width="1.5"/>
<rect opacity="0.1" x="27.75" y="219.75" width="58.5" height="58.5" rx="15.25" stroke="#F8F8F8" stroke-width="1.5"/>
<rect opacity="0.1" x="91.75" y="219.75" width="58.5" height="58.5" rx="15.25" stroke="#F8F8F8" stroke-width="1.5"/>
<rect opacity="0.1" x="155.75" y="219.75" width="122.5" height="58.5" rx="15.25" stroke="#F8F8F8" stroke-width="1.5"/>
<rect opacity="0.1" x="27.75" y="91.75" width="58.5" height="122.5" rx="15.25" stroke="#F8F8F8" stroke-width="1.5"/>
<rect x="91" y="91" width="60" height="60" rx="16" fill="white" fill-opacity="0.2"/>
<rect x="91.75" y="91.75" width="58.5" height="58.5" rx="15.25" stroke="#F8F8F8" stroke-opacity="0.4" stroke-width="1.5"/>
<g clip-path="url(#clip0_2101_9712)">
<path d="M107 125.576C107 125.923 107.126 126.186 107.378 126.364C107.493 126.449 107.624 126.509 107.762 126.542C107.901 126.574 108.045 126.578 108.186 126.553C108.455 126.501 108.644 126.406 108.753 126.266C108.861 126.128 108.916 125.898 108.916 125.576V121.798C108.918 121.671 108.895 121.544 108.847 121.427C108.798 121.309 108.727 121.202 108.636 121.113C108.547 121.022 108.44 120.951 108.322 120.902C108.205 120.854 108.078 120.831 107.951 120.833C107.826 120.833 107.702 120.857 107.587 120.905C107.472 120.953 107.368 121.024 107.28 121.113C107.189 121.202 107.118 121.309 107.069 121.427C107.021 121.544 106.998 121.671 107 121.798V125.576ZM109.997 127.192C109.997 127.444 110.086 127.633 110.265 127.759C110.442 127.885 110.67 127.948 110.948 127.948C111.235 127.948 111.467 127.885 111.645 127.759C111.824 127.633 111.913 127.444 111.913 127.192V118.383C111.914 118.258 111.889 118.135 111.841 118.019C111.793 117.904 111.722 117.8 111.633 117.712C111.544 117.621 111.437 117.55 111.32 117.502C111.202 117.453 111.075 117.43 110.948 117.432C110.823 117.432 110.7 117.456 110.584 117.504C110.469 117.552 110.365 117.623 110.277 117.712C110.188 117.8 110.117 117.904 110.069 118.02C110.021 118.135 109.997 118.259 109.997 118.384V127.193V127.192ZM112.981 127.609C112.981 127.86 113.072 128.049 113.255 128.175C113.437 128.301 113.672 128.364 113.958 128.364C114.236 128.364 114.464 128.301 114.642 128.175C114.821 128.049 114.91 127.86 114.909 127.609V119.57C114.909 119.301 114.816 119.07 114.629 118.879C114.543 118.787 114.439 118.715 114.324 118.665C114.208 118.616 114.084 118.591 113.958 118.592C113.829 118.59 113.702 118.614 113.583 118.663C113.464 118.713 113.357 118.786 113.268 118.879C113.175 118.968 113.101 119.075 113.052 119.194C113.002 119.313 112.978 119.441 112.981 119.57V127.609ZM115.978 127.648C115.978 128.125 116.299 128.364 116.941 128.364C117.585 128.364 117.906 128.125 117.906 127.648V114.618C117.906 113.889 117.685 113.477 117.241 113.382C116.954 113.312 116.672 113.394 116.394 113.628C116.117 113.862 115.978 114.192 115.978 114.618V127.648ZM119.026 128.026V113.851C119.026 113.398 119.161 113.129 119.43 113.042C121.273 112.6 123.214 112.86 124.876 113.771C126.003 114.379 126.96 115.26 127.658 116.333C128.362 117.403 128.785 118.633 128.889 119.909C129.419 119.684 129.984 119.571 130.583 119.571C131.799 119.571 132.839 120.001 133.704 120.861C134.567 121.721 134.999 122.755 135 123.961C135 125.177 134.568 126.216 133.704 127.076C132.84 127.936 131.804 128.366 130.596 128.365L119.261 128.354C119.186 128.33 119.123 128.278 119.086 128.209C119.051 128.154 119.031 128.091 119.027 128.027L119.026 128.026Z" fill="url(#paint1_linear_2101_9712)"/>
</g>
<rect x="155" y="91" width="60" height="60" rx="16" fill="white" fill-opacity="0.2"/>
<rect x="155.75" y="91.75" width="58.5" height="58.5" rx="15.25" stroke="#F8F8F8" stroke-opacity="0.4" stroke-width="1.5"/>
<path d="M188.158 111.207C189.064 110.075 189.678 108.554 189.516 107C188.19 107.066 186.573 107.874 185.637 109.008C184.796 109.979 184.052 111.563 184.246 113.051C185.733 113.18 187.22 112.308 188.158 111.207Z" fill="url(#paint2_linear_2101_9712)"/>
<path d="M189.5 113.341C187.34 113.212 185.502 114.567 184.471 114.567C183.439 114.567 181.858 113.405 180.149 113.436C177.925 113.468 175.861 114.727 174.732 116.727C172.411 120.728 174.12 126.664 176.377 129.923C177.473 131.535 178.795 133.311 180.536 133.247C182.181 133.182 182.826 132.182 184.825 132.182C186.825 132.182 187.404 133.247 189.145 133.215C190.951 133.182 192.08 131.601 193.176 129.988C194.434 128.149 194.949 126.375 194.981 126.278C194.949 126.245 191.499 124.922 191.467 120.954C191.435 117.632 194.175 116.051 194.305 115.953C192.757 113.664 190.339 113.405 189.5 113.341Z" fill="url(#paint3_linear_2101_9712)"/>
<path d="M91 171C91 162.163 98.1634 155 107 155H135C143.837 155 151 162.163 151 171V199C151 207.837 143.837 215 135 215H107C98.1634 215 91 207.837 91 199V171Z" fill="white" fill-opacity="0.2"/>
<path d="M107 155.75H135C143.422 155.75 150.25 162.578 150.25 171V199C150.25 207.422 143.422 214.25 135 214.25H107C98.5777 214.25 91.75 207.422 91.75 199V171C91.75 162.578 98.5777 155.75 107 155.75Z" stroke="#F8F8F8" stroke-opacity="0.4" stroke-width="1.5"/>
<path d="M127.882 183.715C124.149 181.499 117.907 181.265 114.349 182.374C113.765 182.549 113.182 182.199 113.007 181.674C112.832 181.09 113.182 180.507 113.707 180.332C117.849 179.107 124.674 179.34 128.99 181.907C129.515 182.199 129.69 182.899 129.399 183.424C129.107 183.832 128.407 184.007 127.882 183.715ZM127.765 186.982C127.474 187.39 126.949 187.565 126.54 187.274C123.39 185.349 118.607 184.765 114.932 185.932C114.465 186.049 113.94 185.815 113.824 185.349C113.707 184.882 113.94 184.357 114.407 184.24C118.665 182.957 123.915 183.599 127.532 185.815C127.882 185.99 128.057 186.574 127.765 186.982ZM126.365 190.19C126.132 190.54 125.724 190.657 125.374 190.424C122.632 188.732 119.19 188.382 115.107 189.315C114.699 189.432 114.349 189.14 114.232 188.79C114.115 188.382 114.407 188.032 114.757 187.915C119.19 186.924 123.04 187.332 126.074 189.199C126.482 189.374 126.54 189.84 126.365 190.19ZM120.999 173.332C119.467 173.332 117.95 173.634 116.534 174.22C115.119 174.806 113.832 175.666 112.749 176.749C110.561 178.937 109.332 181.905 109.332 184.999C109.332 188.093 110.561 191.06 112.749 193.248C113.832 194.332 115.119 195.191 116.534 195.777C117.95 196.364 119.467 196.665 120.999 196.665C124.093 196.665 127.06 195.436 129.248 193.248C131.436 191.06 132.665 188.093 132.665 184.999C132.665 183.467 132.364 181.95 131.777 180.534C131.191 179.119 130.332 177.832 129.248 176.749C128.165 175.666 126.879 174.806 125.463 174.22C124.048 173.634 122.531 173.332 120.999 173.332Z" fill="url(#paint4_linear_2101_9712)"/>
<g filter="url(#filter1_di_2101_9712)">
<g clip-path="url(#clip1_2101_9712)">
<g filter="url(#filter2_di_2101_9712)">
<rect x="159" y="159" width="52" height="52" rx="12" fill="#F8F8F8" fill-opacity="0.01" shape-rendering="crispEdges"/>
<rect x="159" y="159" width="52" height="52" rx="12" fill="#121212" fill-opacity="0.3" shape-rendering="crispEdges"/>
<rect x="159.75" y="159.75" width="50.5" height="50.5" rx="11.25" stroke="url(#paint5_linear_2101_9712)" stroke-opacity="0.25" stroke-width="1.5" shape-rendering="crispEdges"/>
<path d="M184.925 172C185.421 172 185.823 172.362 185.823 172.808V176.446C185.823 176.892 185.421 177.254 184.925 177.254C184.429 177.254 184.027 176.892 184.027 176.446V172.808C184.027 172.362 184.429 172 184.925 172Z" fill="white"/>
<path d="M179.088 180.352C179.088 179.906 178.686 179.544 178.19 179.544C177.694 179.544 177.292 179.906 177.292 180.352V187.088C177.292 187.534 177.694 187.896 178.19 187.896C178.686 187.896 179.088 187.534 179.088 187.088V180.352Z" fill="white"/>
<path d="M175.646 183.249C175.646 182.839 175.278 182.508 174.823 182.508C174.369 182.508 174 182.839 174 183.249V187.155C174 187.565 174.369 187.896 174.823 187.896C175.278 187.896 175.646 187.565 175.646 187.155V183.249Z" fill="white"/>
<path d="M179.088 190.052C179.088 189.605 178.686 189.244 178.19 189.244C177.694 189.244 177.292 189.605 177.292 190.052V191.13C177.292 191.576 177.694 191.938 178.19 191.938C178.686 191.938 179.088 191.576 179.088 191.13V190.052Z" fill="white"/>
<path d="M188.367 191.264C188.863 191.264 189.265 191.626 189.265 192.073V193.285C189.265 193.731 188.863 194.093 188.367 194.093C187.871 194.093 187.469 193.731 187.469 193.285V192.073C187.469 191.626 187.871 191.264 188.367 191.264Z" fill="white"/>
<path d="M185.823 192.746C185.823 192.3 185.421 191.938 184.925 191.938C184.429 191.938 184.027 192.3 184.027 192.746V197.192C184.027 197.638 184.429 198 184.925 198C185.421 198 185.823 197.638 185.823 197.192V192.746Z" fill="white"/>
<path d="M191.735 182.238C192.189 182.238 192.558 182.57 192.558 182.979V191.197C192.558 191.606 192.189 191.938 191.735 191.938C191.28 191.938 190.911 191.606 190.911 191.197V182.979C190.911 182.57 191.28 182.238 191.735 182.238Z" fill="white"/>
<path d="M188.358 176.149C188.583 176.149 188.798 176.23 188.957 176.372C189.116 176.515 189.205 176.709 189.205 176.911V189.615C189.205 189.817 189.116 190.011 188.957 190.154C188.798 190.297 188.583 190.377 188.358 190.377C188.133 190.377 187.918 190.297 187.759 190.154C187.6 190.011 187.511 189.817 187.511 189.615V185.437L184.121 182.38V179.047C184.195 178.886 184.311 178.745 184.46 178.635C184.577 178.558 184.712 178.507 184.855 178.484C184.997 178.462 185.144 178.469 185.283 178.504C185.509 178.565 185.7 178.702 185.817 178.887C185.817 178.887 185.844 178.939 185.931 182.016C185.931 182.016 186.366 182.38 186.762 182.38C187.157 182.38 187.514 182.016 187.514 182.016L187.511 176.911C187.511 176.709 187.601 176.515 187.76 176.372C187.918 176.229 188.134 176.149 188.358 176.149Z" fill="white"/>
<path d="M182.183 175.991C182.024 175.848 181.809 175.768 181.585 175.768C181.36 175.768 181.145 175.848 180.986 175.991C180.827 176.134 180.738 176.328 180.738 176.53V193.934C180.738 194.137 180.827 194.33 180.986 194.473C181.145 194.616 181.36 194.697 181.585 194.697C181.809 194.697 182.024 194.616 182.183 194.473C182.342 194.33 182.431 194.137 182.431 193.934L182.506 186.575C182.506 186.575 182.836 186.153 183.323 186.182C183.471 186.195 183.613 186.236 183.74 186.304C183.867 186.372 183.976 186.464 184.059 186.575L184.146 189.95C184.146 189.95 184.595 190.421 185.008 190.421C185.421 190.421 185.797 189.95 185.797 189.95L185.834 185.991L182.487 182.984L182.431 176.53C182.431 176.328 182.342 176.134 182.183 175.991Z" fill="white"/>
<path d="M196 184.192C196 183.783 195.631 183.451 195.177 183.451C194.722 183.451 194.354 183.783 194.354 184.192V186.212C194.354 186.622 194.722 186.953 195.177 186.953C195.631 186.953 196 186.622 196 186.212V184.192Z" fill="white"/>
<path d="M191.735 178.466C192.189 178.466 192.558 178.798 192.558 179.207V180.689C192.558 181.098 192.189 181.43 191.735 181.43C191.28 181.43 190.911 181.098 190.911 180.689V179.207C190.911 178.798 191.28 178.466 191.735 178.466Z" fill="white"/>
</g>
</g>
<rect x="155.75" y="155.75" width="58.5" height="58.5" rx="15.25" stroke="#F8F8F8" stroke-opacity="0.4" stroke-width="1.5" shape-rendering="crispEdges"/>
</g>
<rect opacity="0.1" x="219.75" y="91.75" width="58.5" height="122.5" rx="15.25" stroke="#F8F8F8" stroke-width="1.5"/>
<path d="M205.084 204.183C204.896 204.116 204.705 204.047 204.545 204.005C204.392 203.966 204.097 203.9 203.781 204.009C203.419 204.135 203.135 204.419 203.009 204.781C202.9 205.097 202.966 205.392 203.005 205.545C203.047 205.705 203.116 205.896 203.183 206.084L207.957 219.383C208.041 219.617 208.121 219.841 208.201 220.013C208.268 220.159 208.42 220.478 208.751 220.658C209.114 220.855 209.55 220.861 209.917 220.673C210.253 220.502 210.414 220.187 210.485 220.043C210.569 219.873 210.655 219.651 210.745 219.42L212.894 213.894L218.42 211.745C218.651 211.655 218.873 211.569 219.043 211.485C219.187 211.414 219.502 211.253 219.673 210.917C219.861 210.55 219.855 210.114 219.658 209.751C219.478 209.42 219.159 209.268 219.013 209.201C218.841 209.121 218.617 209.041 218.383 208.957L205.084 204.183Z" fill="white" stroke="#F8F8F8" stroke-width="1.5" stroke-linecap="round" stroke-linejoin="round"/>
<g filter="url(#filter3_di_2101_9712)">
<rect x="217" y="215" width="72" height="22" rx="8" fill="#6D588A" style="mix-blend-mode:luminosity" shape-rendering="crispEdges"/>
<rect x="217.75" y="215.75" width="70.5" height="20.5" rx="7.25" stroke="url(#paint6_linear_2101_9712)" stroke-opacity="0.25" stroke-width="1.5" shape-rendering="crispEdges"/>
<path d="M227.113 230V221.545H228.625V230H227.113ZM230.559 230V223.596H232.018V224.58H232.117C232.27 224.232 232.5 223.961 232.809 223.766C233.117 223.57 233.502 223.473 233.963 223.473C234.678 223.473 235.225 223.68 235.604 224.094C235.982 224.508 236.172 225.096 236.172 225.857V230H234.713V226.197C234.713 225.697 234.607 225.322 234.396 225.072C234.189 224.822 233.865 224.697 233.424 224.697C233.135 224.697 232.885 224.762 232.674 224.891C232.463 225.02 232.301 225.201 232.188 225.436C232.074 225.67 232.018 225.947 232.018 226.268V230H230.559ZM240.414 230.029C239.68 230.029 239.15 229.895 238.826 229.625C238.502 229.355 238.34 228.914 238.34 228.301V224.727H237.344V223.596H238.34V222.025H239.822V223.596H241.17V224.727H239.822V227.955C239.822 228.271 239.889 228.504 240.021 228.652C240.158 228.797 240.377 228.869 240.678 228.869C240.783 228.869 240.869 228.867 240.936 228.863C241.006 228.855 241.084 228.848 241.17 228.84V229.965C241.068 229.984 240.951 230 240.818 230.012C240.689 230.023 240.555 230.029 240.414 230.029ZM245.312 230.129C244.676 230.129 244.129 229.994 243.672 229.725C243.219 229.455 242.869 229.072 242.623 228.576C242.377 228.08 242.254 227.492 242.254 226.812V226.807C242.254 226.135 242.375 225.549 242.617 225.049C242.863 224.549 243.211 224.162 243.66 223.889C244.109 223.611 244.637 223.473 245.242 223.473C245.852 223.473 246.375 223.607 246.812 223.877C247.254 224.143 247.594 224.516 247.832 224.996C248.07 225.477 248.189 226.039 248.189 226.684V227.164H242.986V226.186H247.475L246.783 227.1V226.52C246.783 226.094 246.719 225.74 246.59 225.459C246.461 225.178 246.281 224.967 246.051 224.826C245.824 224.686 245.561 224.615 245.26 224.615C244.959 224.615 244.691 224.689 244.457 224.838C244.227 224.982 244.043 225.197 243.906 225.482C243.773 225.764 243.707 226.109 243.707 226.52V227.105C243.707 227.5 243.773 227.838 243.906 228.119C244.039 228.396 244.227 228.611 244.469 228.764C244.715 228.912 245.006 228.986 245.342 228.986C245.604 228.986 245.828 228.949 246.016 228.875C246.207 228.797 246.361 228.705 246.479 228.6C246.596 228.49 246.678 228.387 246.725 228.289L246.742 228.248H248.125L248.113 228.301C248.062 228.508 247.969 228.719 247.832 228.934C247.699 229.145 247.518 229.342 247.287 229.525C247.061 229.705 246.783 229.852 246.455 229.965C246.127 230.074 245.746 230.129 245.312 230.129ZM252.402 232.25C251.84 232.25 251.354 232.176 250.943 232.027C250.537 231.879 250.217 231.668 249.982 231.395C249.748 231.125 249.605 230.811 249.555 230.451L249.561 230.434H251.014L251.025 230.451C251.072 230.654 251.215 230.82 251.453 230.949C251.695 231.082 252.02 231.148 252.426 231.148C252.926 231.148 253.312 231.037 253.586 230.814C253.863 230.592 254.002 230.275 254.002 229.865V228.635H253.902C253.781 228.865 253.623 229.061 253.428 229.221C253.236 229.381 253.016 229.502 252.766 229.584C252.52 229.662 252.248 229.701 251.951 229.701C251.412 229.701 250.945 229.572 250.551 229.314C250.156 229.053 249.852 228.691 249.637 228.23C249.426 227.77 249.32 227.236 249.32 226.631V226.619C249.32 226.002 249.428 225.459 249.643 224.99C249.857 224.521 250.162 224.154 250.557 223.889C250.955 223.623 251.43 223.49 251.98 223.49C252.277 223.49 252.549 223.537 252.795 223.631C253.045 223.725 253.264 223.857 253.451 224.029C253.643 224.201 253.799 224.408 253.92 224.65H253.996V223.596H255.455V229.842C255.455 230.334 255.33 230.76 255.08 231.119C254.834 231.482 254.482 231.762 254.025 231.957C253.568 232.152 253.027 232.25 252.402 232.25ZM252.402 228.541C252.738 228.541 253.027 228.461 253.27 228.301C253.512 228.137 253.697 227.912 253.826 227.627C253.959 227.342 254.025 227.01 254.025 226.631V226.619C254.025 226.24 253.959 225.908 253.826 225.623C253.697 225.334 253.512 225.109 253.27 224.949C253.027 224.785 252.738 224.703 252.402 224.703C252.062 224.703 251.773 224.785 251.535 224.949C251.301 225.109 251.121 225.334 250.996 225.623C250.875 225.908 250.814 226.24 250.814 226.619V226.631C250.814 227.006 250.875 227.338 250.996 227.627C251.121 227.912 251.301 228.137 251.535 228.301C251.773 228.461 252.062 228.541 252.402 228.541ZM257.242 230V223.596H258.701V224.58H258.801C258.91 224.236 259.105 223.969 259.387 223.777C259.672 223.586 260.025 223.49 260.447 223.49C260.557 223.49 260.664 223.498 260.77 223.514C260.879 223.525 260.969 223.541 261.039 223.561V224.867C260.922 224.84 260.803 224.82 260.682 224.809C260.564 224.793 260.441 224.785 260.312 224.785C259.988 224.785 259.705 224.846 259.463 224.967C259.221 225.088 259.033 225.262 258.9 225.488C258.768 225.711 258.701 225.975 258.701 226.279V230H257.242ZM263.898 230.105C263.496 230.105 263.135 230.027 262.814 229.871C262.498 229.715 262.248 229.494 262.064 229.209C261.885 228.92 261.795 228.58 261.795 228.189V228.178C261.795 227.799 261.889 227.473 262.076 227.199C262.264 226.922 262.539 226.705 262.902 226.549C263.266 226.393 263.707 226.301 264.227 226.273L266.594 226.127V227.088L264.432 227.229C264.021 227.252 263.719 227.338 263.523 227.486C263.328 227.635 263.23 227.842 263.23 228.107V228.119C263.23 228.393 263.334 228.605 263.541 228.758C263.752 228.91 264.02 228.986 264.344 228.986C264.637 228.986 264.898 228.928 265.129 228.811C265.359 228.693 265.541 228.535 265.674 228.336C265.807 228.133 265.873 227.904 265.873 227.65V225.623C265.873 225.303 265.771 225.059 265.568 224.891C265.365 224.719 265.064 224.633 264.666 224.633C264.334 224.633 264.062 224.691 263.852 224.809C263.641 224.922 263.498 225.084 263.424 225.295L263.418 225.318H262.041L262.047 225.266C262.094 224.906 262.234 224.592 262.469 224.322C262.703 224.053 263.014 223.844 263.4 223.695C263.787 223.547 264.232 223.473 264.736 223.473C265.291 223.473 265.76 223.559 266.143 223.73C266.525 223.898 266.816 224.145 267.016 224.469C267.215 224.789 267.314 225.174 267.314 225.623V230H265.873V229.121H265.773C265.656 229.324 265.504 229.5 265.316 229.648C265.133 229.797 264.922 229.91 264.684 229.988C264.445 230.066 264.184 230.105 263.898 230.105ZM271.586 230.029C270.852 230.029 270.322 229.895 269.998 229.625C269.674 229.355 269.512 228.914 269.512 228.301V224.727H268.516V223.596H269.512V222.025H270.994V223.596H272.342V224.727H270.994V227.955C270.994 228.271 271.061 228.504 271.193 228.652C271.33 228.797 271.549 228.869 271.85 228.869C271.955 228.869 272.041 228.867 272.107 228.863C272.178 228.855 272.256 228.848 272.342 228.84V229.965C272.24 229.984 272.123 230 271.99 230.012C271.861 230.023 271.727 230.029 271.586 230.029ZM276.484 230.129C275.848 230.129 275.301 229.994 274.844 229.725C274.391 229.455 274.041 229.072 273.795 228.576C273.549 228.08 273.426 227.492 273.426 226.812V226.807C273.426 226.135 273.547 225.549 273.789 225.049C274.035 224.549 274.383 224.162 274.832 223.889C275.281 223.611 275.809 223.473 276.414 223.473C277.023 223.473 277.547 223.607 277.984 223.877C278.426 224.143 278.766 224.516 279.004 224.996C279.242 225.477 279.361 226.039 279.361 226.684V227.164H274.158V226.186H278.646L277.955 227.1V226.52C277.955 226.094 277.891 225.74 277.762 225.459C277.633 225.178 277.453 224.967 277.223 224.826C276.996 224.686 276.732 224.615 276.432 224.615C276.131 224.615 275.863 224.689 275.629 224.838C275.398 224.982 275.215 225.197 275.078 225.482C274.945 225.764 274.879 226.109 274.879 226.52V227.105C274.879 227.5 274.945 227.838 275.078 228.119C275.211 228.396 275.398 228.611 275.641 228.764C275.887 228.912 276.178 228.986 276.514 228.986C276.775 228.986 277 228.949 277.188 228.875C277.379 228.797 277.533 228.705 277.65 228.6C277.768 228.49 277.85 228.387 277.896 228.289L277.914 228.248H279.297L279.285 228.301C279.234 228.508 279.141 228.719 279.004 228.934C278.871 229.145 278.689 229.342 278.459 229.525C278.232 229.705 277.955 229.852 277.627 229.965C277.299 230.074 276.918 230.129 276.484 230.129Z" fill="#F8F8F8"/>
</g>
<defs>
<filter id="filter0_f_2101_9712" x="3" y="0" width="304" height="304" filterUnits="userSpaceOnUse" color-interpolation-filters="sRGB">
<feFlood flood-opacity="0" result="BackgroundImageFix"/>
<feBlend mode="normal" in="SourceGraphic" in2="BackgroundImageFix" result="shape"/>
<feGaussianBlur stdDeviation="32" result="effect1_foregroundBlur_2101_9712"/>
</filter>
<filter id="filter1_di_2101_9712" x="147" y="155" width="76" height="100" filterUnits="userSpaceOnUse" color-interpolation-filters="sRGB">
<feFlood flood-opacity="0" result="BackgroundImageFix"/>
<feColorMatrix in="SourceAlpha" type="matrix" values="0 0 0 0 0 0 0 0 0 0 0 0 0 0 0 0 0 0 127 0" result="hardAlpha"/>
<feMorphology radius="16" operator="erode" in="SourceAlpha" result="effect1_dropShadow_2101_9712"/>
<feOffset dy="32"/>
<feGaussianBlur stdDeviation="12"/>
<feComposite in2="hardAlpha" operator="out"/>
<feColorMatrix type="matrix" values="0 0 0 0 0 0 0 0 0 0 0 0 0 0 0 0 0 0 0.4 0"/>
<feBlend mode="multiply" in2="BackgroundImageFix" result="effect1_dropShadow_2101_9712"/>
<feBlend mode="normal" in="SourceGraphic" in2="effect1_dropShadow_2101_9712" result="shape"/>
<feColorMatrix in="SourceAlpha" type="matrix" values="0 0 0 0 0 0 0 0 0 0 0 0 0 0 0 0 0 0 127 0" result="hardAlpha"/>
<feOffset/>
<feGaussianBlur stdDeviation="4"/>
<feComposite in2="hardAlpha" operator="arithmetic" k2="-1" k3="1"/>
<feColorMatrix type="matrix" values="0 0 0 0 0.972549 0 0 0 0 0.972549 0 0 0 0 0.972549 0 0 0 0.25 0"/>
<feBlend mode="normal" in2="shape" result="effect2_innerShadow_2101_9712"/>
</filter>
<filter id="filter2_di_2101_9712" x="147" y="147" width="76" height="104" filterUnits="userSpaceOnUse" color-interpolation-filters="sRGB">
<feFlood flood-opacity="0" result="BackgroundImageFix"/>
<feColorMatrix in="SourceAlpha" type="matrix" values="0 0 0 0 0 0 0 0 0 0 0 0 0 0 0 0 0 0 127 0" result="hardAlpha"/>
<feMorphology radius="16" operator="erode" in="SourceAlpha" result="effect1_dropShadow_2101_9712"/>
<feOffset dy="32"/>
<feGaussianBlur stdDeviation="12"/>
<feComposite in2="hardAlpha" operator="out"/>
<feColorMatrix type="matrix" values="0 0 0 0 0 0 0 0 0 0 0 0 0 0 0 0 0 0 0.4 0"/>
<feBlend mode="multiply" in2="BackgroundImageFix" result="effect1_dropShadow_2101_9712"/>
<feBlend mode="normal" in="SourceGraphic" in2="effect1_dropShadow_2101_9712" result="shape"/>
<feColorMatrix in="SourceAlpha" type="matrix" values="0 0 0 0 0 0 0 0 0 0 0 0 0 0 0 0 0 0 127 0" result="hardAlpha"/>
<feOffset/>
<feGaussianBlur stdDeviation="4"/>
<feComposite in2="hardAlpha" operator="arithmetic" k2="-1" k3="1"/>
<feColorMatrix type="matrix" values="0 0 0 0 0.972549 0 0 0 0 0.972549 0 0 0 0 0.972549 0 0 0 0.25 0"/>
<feBlend mode="normal" in2="shape" result="effect2_innerShadow_2101_9712"/>
</filter>
<filter id="filter3_di_2101_9712" x="205" y="203" width="96" height="74" filterUnits="userSpaceOnUse" color-interpolation-filters="sRGB">
<feFlood flood-opacity="0" result="BackgroundImageFix"/>
<feColorMatrix in="SourceAlpha" type="matrix" values="0 0 0 0 0 0 0 0 0 0 0 0 0 0 0 0 0 0 127 0" result="hardAlpha"/>
<feMorphology radius="16" operator="erode" in="SourceAlpha" result="effect1_dropShadow_2101_9712"/>
<feOffset dy="32"/>
<feGaussianBlur stdDeviation="12"/>
<feComposite in2="hardAlpha" operator="out"/>
<feColorMatrix type="matrix" values="0 0 0 0 0 0 0 0 0 0 0 0 0 0 0 0 0 0 0.4 0"/>
<feBlend mode="multiply" in2="BackgroundImageFix" result="effect1_dropShadow_2101_9712"/>
<feBlend mode="normal" in="SourceGraphic" in2="effect1_dropShadow_2101_9712" result="shape"/>
<feColorMatrix in="SourceAlpha" type="matrix" values="0 0 0 0 0 0 0 0 0 0 0 0 0 0 0 0 0 0 127 0" result="hardAlpha"/>
<feOffset/>
<feGaussianBlur stdDeviation="4"/>
<feComposite in2="hardAlpha" operator="arithmetic" k2="-1" k3="1"/>
<feColorMatrix type="matrix" values="0 0 0 0 0.972549 0 0 0 0 0.972549 0 0 0 0 0.972549 0 0 0 0.25 0"/>
<feBlend mode="normal" in2="shape" result="effect2_innerShadow_2101_9712"/>
</filter>
<radialGradient id="paint0_radial_2101_9712" cx="0" cy="0" r="1" gradientUnits="userSpaceOnUse" gradientTransform="translate(118.711 157.897) rotate(-2.66053) scale(244.305 155.823)">
<stop stop-color="#6B00FF" stop-opacity="0.77"/>
<stop offset="0.376681" stop-color="#8E3BFF" stop-opacity="0.25"/>
<stop offset="1" stop-color="white" stop-opacity="0"/>
</radialGradient>
<linearGradient id="paint1_linear_2101_9712" x1="121" y1="112.832" x2="121" y2="140.832" gradientUnits="userSpaceOnUse">
<stop stop-color="#F8F8F8" stop-opacity="0.9"/>
<stop offset="1" stop-color="#F8F8F8" stop-opacity="0.3"/>
</linearGradient>
<linearGradient id="paint2_linear_2101_9712" x1="186.878" y1="107" x2="186.878" y2="113.064" gradientUnits="userSpaceOnUse">
<stop stop-color="#F8F8F8" stop-opacity="0.9"/>
<stop offset="1" stop-color="#F8F8F8" stop-opacity="0.3"/>
</linearGradient>
<linearGradient id="paint3_linear_2101_9712" x1="184.303" y1="113.332" x2="184.303" y2="133.249" gradientUnits="userSpaceOnUse">
<stop stop-color="#F8F8F8" stop-opacity="0.9"/>
<stop offset="1" stop-color="#F8F8F8" stop-opacity="0.3"/>
</linearGradient>
<linearGradient id="paint4_linear_2101_9712" x1="120.999" y1="173.332" x2="120.999" y2="196.665" gradientUnits="userSpaceOnUse">
<stop stop-color="#F8F8F8" stop-opacity="0.9"/>
<stop offset="1" stop-color="#F8F8F8" stop-opacity="0.3"/>
</linearGradient>
<linearGradient id="paint5_linear_2101_9712" x1="185" y1="159" x2="207.621" y2="216.102" gradientUnits="userSpaceOnUse">
<stop stop-color="white" stop-opacity="0.4"/>
<stop offset="0.4" stop-color="white" stop-opacity="0.01"/>
<stop offset="0.6" stop-color="white" stop-opacity="0.01"/>
<stop offset="1" stop-color="white" stop-opacity="0.1"/>
</linearGradient>
<linearGradient id="paint6_linear_2101_9712" x1="253" y1="215" x2="256.334" y2="242.546" gradientUnits="userSpaceOnUse">
<stop stop-color="white" stop-opacity="0.4"/>
<stop offset="0.4" stop-color="white" stop-opacity="0.01"/>
<stop offset="0.6" stop-color="white" stop-opacity="0.01"/>
<stop offset="1" stop-color="white" stop-opacity="0.1"/>
</linearGradient>
<clipPath id="clip0_2101_9712">
<rect width="28" height="28" fill="white" transform="translate(107 107)"/>
</clipPath>
<clipPath id="clip1_2101_9712">
<rect x="155" y="155" width="60" height="60" rx="16" fill="white"/>
</clipPath>
</defs>
</svg>
