<svg width="307" height="304" viewBox="0 0 307 304" fill="none" xmlns="http://www.w3.org/2000/svg">
<g filter="url(#filter0_f_2101_9712)">
<path d="M243 152C243 200.601 203.601 240 155 240C106.399 240 67 200.601 67 152C67 103.399 106.399 64 155 64C203.601 64 243 103.399 243 152Z" fill="url(#paint0_radial_2101_9712)"/>
</g>
<rect opacity="0.1" x="27.75" y="27.75" width="122.5" height="58.5" rx="15.25" stroke="#F8F8F8" stroke-width="1.5"/>
<rect opacity="0.1" x="155.75" y="27.75" width="58.5" height="58.5" rx="15.25" stroke="#F8F8F8" stroke-width="1.5"/>
<rect opacity="0.1" x="219.75" y="27.75" width="58.5" height="58.5" rx="15.25" stroke="#F8F8F8" stroke-width="1.5"/>
<rect opacity="0.1" x="27.75" y="219.75" width="58.5" height="58.5" rx="15.25" stroke="#F8F8F8" stroke-width="1.5"/>
<rect opacity="0.1" x="91.75" y="219.75" width="58.5" height="58.5" rx="15.25" stroke="#F8F8F8" stroke-width="1.5"/>
<rect opacity="0.1" x="155.75" y="219.75" width="122.5" height="58.5" rx="15.25" stroke="#F8F8F8" stroke-width="1.5"/>
<rect opacity="0.1" x="27.75" y="91.75" width="58.5" height="122.5" rx="15.25" stroke="#F8F8F8" stroke-width="1.5"/>
<rect x="91" y="91" width="60" height="60" rx="16" fill="white" fill-opacity="0.2"/>
<rect x="91.75" y="91.75" width="58.5" height="58.5" rx="15.25" stroke="#F8F8F8" stroke-opacity="0.4" stroke-width="1.5"/>
<g clip-path="url(#clip0_2101_9712)">
<path d="M107 125.576C107 125.923 107.126 126.186 107.378 126.364C107.493 126.449 107.624 126.509 107.762 126.542C107.901 126.574 108.045 126.578 108.186 126.553C108.455 126.501 108.644 126.406 108.753 126.266C108.861 126.128 108.916 125.898 108.916 125.576V121.798C108.918 121.671 108.895 121.544 108.847 121.427C108.798 121.309 108.727 121.202 108.636 121.113C108.547 121.022 108.44 120.951 108.322 120.902C108.205 120.854 108.078 120.831 107.951 120.833C107.826 120.833 107.702 120.857 107.587 120.905C107.472 120.953 107.368 121.024 107.28 121.113C107.189 121.202 107.118 121.309 107.069 121.427C107.021 121.544 106.998 121.671 107 121.798V125.576ZM109.997 127.192C109.997 127.444 110.086 127.633 110.265 127.759C110.442 127.885 110.67 127.948 110.948 127.948C111.235 127.948 111.467 127.885 111.645 127.759C111.824 127.633 111.913 127.444 111.913 127.192V118.383C111.914 118.258 111.889 118.135 111.841 118.019C111.793 117.904 111.722 117.8 111.633 117.712C111.544 117.621 111.437 117.55 111.32 117.502C111.202 117.453 111.075 117.43 110.948 117.432C110.823 117.432 110.7 117.456 110.584 117.504C110.469 117.552 110.365 117.623 110.277 117.712C110.188 117.8 110.117 117.904 110.069 118.02C110.021 118.135 109.997 118.259 109.997 118.384V127.193V127.192ZM112.981 127.609C112.981 127.86 113.072 128.049 113.255 128.175C113.437 128.301 113.672 128.364 113.958 128.364C114.236 128.364 114.464 128.301 114.642 128.175C114.821 128.049 114.91 127.86 114.909 127.609V119.57C114.909 119.301 114.816 119.07 114.629 118.879C114.543 118.787 114.439 118.715 114.324 118.665C114.208 118.616 114.084 118.591 113.958 118.592C113.829 118.59 113.702 118.614 113.583 118.663C113.464 118.713 113.357 118.786 113.268 118.879C113.175 118.968 113.101 119.075 113.052 119.194C113.002 119.313 112.978 119.441 112.981 119.57V127.609ZM115.978 127.648C115.978 128.125 116.299 128.364 116.941 128.364C117.585 128.364 117.906 128.125 117.906 127.648V114.618C117.906 113.889 117.685 113.477 117.241 113.382C116.954 113.312 116.672 113.394 116.394 113.628C116.117 113.862 115.978 114.192 115.978 114.618V127.648ZM119.026 128.026V113.851C119.026 113.398 119.161 113.129 119.43 113.042C121.273 112.6 123.214 112.86 124.876 113.771C126.003 114.379 126.96 115.26 127.658 116.333C128.362 117.403 128.785 118.633 128.889 119.909C129.419 119.684 129.984 119.571 130.583 119.571C131.799 119.571 132.839 120.001 133.704 120.861C134.567 121.721 134.999 122.755 135 123.961C135 125.177 134.568 126.216 133.704 127.076C132.84 127.936 131.804 128.366 130.596 128.365L119.261 128.354C119.186 128.33 119.123 128.278 119.086 128.209C119.051 128.154 119.031 128.091 119.027 128.027L119.026 128.026Z" fill="url(#paint1_linear_2101_9712)"/>
</g>
<rect x="155" y="91" width="60" height="60" rx="16" fill="white" fill-opacity="0.2"/>
<rect x="155.75" y="91.75" width="58.5" height="58.5" rx="15.25" stroke="#F8F8F8" stroke-opacity="0.4" stroke-width="1.5"/>
<path d="M188.158 111.207C189.064 110.075 189.678 108.554 189.516 107C188.19 107.066 186.573 107.874 185.637 109.008C184.796 109.979 184.052 111.563 184.246 113.051C185.733 113.18 187.22 112.308 188.158 111.207Z" fill="url(#paint2_linear_2101_9712)"/>
<path d="M189.5 113.341C187.34 113.212 185.502 114.567 184.471 114.567C183.439 114.567 181.858 113.405 180.149 113.436C177.925 113.468 175.861 114.727 174.732 116.727C172.411 120.728 174.12 126.664 176.377 129.923C177.473 131.535 178.795 133.311 180.536 133.247C182.181 133.182 182.826 132.182 184.825 132.182C186.825 132.182 187.404 133.247 189.145 133.215C190.951 133.182 192.08 131.601 193.176 129.988C194.434 128.149 194.949 126.375 194.981 126.278C194.949 126.245 191.499 124.922 191.467 120.954C191.435 117.632 194.175 116.051 194.305 115.953C192.757 113.664 190.339 113.405 189.5 113.341Z" fill="url(#paint3_linear_2101_9712)"/>
<path d="M91 171C91 162.163 98.1634 155 107 155H135C143.837 155 151 162.163 151 171V199C151 207.837 143.837 215 135 215H107C98.1634 215 91 207.837 91 199V171Z" fill="white" fill-opacity="0.2"/>
<path d="M107 155.75H135C143.422 155.75 150.25 162.578 150.25 171V199C150.25 207.422 143.422 214.25 135 214.25H107C98.5777 214.25 91.75 207.422 91.75 199V171C91.75 162.578 98.5777 155.75 107 155.75Z" stroke="#F8F8F8" stroke-opacity="0.4" stroke-width="1.5"/>
<path d="M127.882 183.715C124.149 181.499 117.907 181.265 114.349 182.374C113.765 182.549 113.182 182.199 113.007 181.674C112.832 181.09 113.182 180.507 113.707 180.332C117.849 179.107 124.674 179.34 128.99 181.907C129.515 182.199 129.69 182.899 129.399 183.424C129.107 183.832 128.407 184.007 127.882 183.715ZM127.765 186.982C127.474 187.39 126.949 187.565 126.54 187.274C123.39 185.349 118.607 184.765 114.932 185.932C114.465 186.049 113.94 185.815 113.824 185.349C113.707 184.882 113.94 184.357 114.407 184.24C118.665 182.957 123.915 183.599 127.532 185.815C127.882 185.99 128.057 186.574 127.765 186.982ZM126.365 190.19C126.132 190.54 125.724 190.657 125.374 190.424C122.632 188.732 119.19 188.382 115.107 189.315C114.699 189.432 114.349 189.14 114.232 188.79C114.115 188.382 114.407 188.032 114.757 187.915C119.19 186.924 123.04 187.332 126.074 189.199C126.482 189.374 126.54 189.84 126.365 190.19ZM120.999 173.332C119.467 173.332 117.95 173.634 116.534 174.22C115.119 174.806 113.832 175.666 112.749 176.749C110.561 178.937 109.332 181.905 109.332 184.999C109.332 188.093 110.561 191.06 112.749 193.248C113.832 194.332 115.119 195.191 116.534 195.777C117.95 196.364 119.467 196.665 120.999 196.665C124.093 196.665 127.06 195.436 129.248 193.248C131.436 191.06 132.665 188.093 132.665 184.999C132.665 183.467 132.364 181.95 131.777 180.534C131.191 179.119 130.332 177.832 129.248 176.749C128.165 175.666 126.879 174.806 125.463 174.22C124.048 173.634 122.531 173.332 120.999 173.332Z" fill="url(#paint4_linear_2101_9712)"/>
<g filter="url(#filter1_di_2101_9712)">
<g clip-path="url(#clip1_2101_9712)">
<g filter="url(#filter2_di_2101_9712)">
<rect x="159" y="159" width="52" height="52" rx="12" fill="#F8F8F8" fill-opacity="0.01" shape-rendering="crispEdges"/>
<rect x="159" y="159" width="52" height="52" rx="12" fill="#121212" fill-opacity="0.3" shape-rendering="crispEdges"/>
<rect x="159.75" y="159.75" width="50.5" height="50.5" rx="11.25" stroke="url(#paint5_linear_2101_9712)" stroke-opacity="0.25" stroke-width="1.5" shape-rendering="crispEdges"/>
<path d="M184.925 172C185.421 172 185.823 172.362 185.823 172.808V176.446C185.823 176.892 185.421 177.254 184.925 177.254C184.429 177.254 184.027 176.892 184.027 176.446V172.808C184.027 172.362 184.429 172 184.925 172Z" fill="white"/>
<path d="M179.088 180.352C179.088 179.906 178.686 179.544 178.19 179.544C177.694 179.544 177.292 179.906 177.292 180.352V187.088C177.292 187.534 177.694 187.896 178.19 187.896C178.686 187.896 179.088 187.534 179.088 187.088V180.352Z" fill="white"/>
<path d="M175.646 183.249C175.646 182.839 175.278 182.508 174.823 182.508C174.369 182.508 174 182.839 174 183.249V187.155C174 187.565 174.369 187.896 174.823 187.896C175.278 187.896 175.646 187.565 175.646 187.155V183.249Z" fill="white"/>
<path d="M179.088 190.052C179.088 189.605 178.686 189.244 178.19 189.244C177.694 189.244 177.292 189.605 177.292 190.052V191.13C177.292 191.576 177.694 191.938 178.19 191.938C178.686 191.938 179.088 191.576 179.088 191.13V190.052Z" fill="white"/>
<path d="M188.367 191.264C188.863 191.264 189.265 191.626 189.265 192.073V193.285C189.265 193.731 188.863 194.093 188.367 194.093C187.871 194.093 187.469 193.731 187.469 193.285V192.073C187.469 191.626 187.871 191.264 188.367 191.264Z" fill="white"/>
<path d="M185.823 192.746C185.823 192.3 185.421 191.938 184.925 191.938C184.429 191.938 184.027 192.3 184.027 192.746V197.192C184.027 197.638 184.429 198 184.925 198C185.421 198 185.823 197.638 185.823 197.192V192.746Z" fill="white"/>
<path d="M191.735 182.238C192.189 182.238 192.558 182.57 192.558 182.979V191.197C192.558 191.606 192.189 191.938 191.735 191.938C191.28 191.938 190.911 191.606 190.911 191.197V182.979C190.911 182.57 191.28 182.238 191.735 182.238Z" fill="white"/>
<path d="M188.358 176.149C188.583 176.149 188.798 176.23 188.957 176.372C189.116 176.515 189.205 176.709 189.205 176.911V189.615C189.205 189.817 189.116 190.011 188.957 190.154C188.798 190.297 188.583 190.377 188.358 190.377C188.133 190.377 187.918 190.297 187.759 190.154C187.6 190.011 187.511 189.817 187.511 189.615V185.437L184.121 182.38V179.047C184.195 178.886 184.311 178.745 184.46 178.635C184.577 178.558 184.712 178.507 184.855 178.484C184.997 178.462 185.144 178.469 185.283 178.504C185.509 178.565 185.7 178.702 185.817 178.887C185.817 178.887 185.844 178.939 185.931 182.016C185.931 182.016 186.366 182.38 186.762 182.38C187.157 182.38 187.514 182.016 187.514 182.016L187.511 176.911C187.511 176.709 187.601 176.515 187.76 176.372C187.918 176.229 188.134 176.149 188.358 176.149Z" fill="white"/>
<path d="M182.183 175.991C182.024 175.848 181.809 175.768 181.585 175.768C181.36 175.768 181.145 175.848 180.986 175.991C180.827 176.134 180.738 176.328 180.738 176.53V193.934C180.738 194.137 180.827 194.33 180.986 194.473C181.145 194.616 181.36 194.697 181.585 194.697C181.809 194.697 182.024 194.616 182.183 194.473C182.342 194.33 182.431 194.137 182.431 193.934L182.506 186.575C182.506 186.575 182.836 186.153 183.323 186.182C183.471 186.195 183.613 186.236 183.74 186.304C183.867 186.372 183.976 186.464 184.059 186.575L184.146 189.95C184.146 189.95 184.595 190.421 185.008 190.421C185.421 190.421 185.797 189.95 185.797 189.95L185.834 185.991L182.487 182.984L182.431 176.53C182.431 176.328 182.342 176.134 182.183 175.991Z" fill="white"/>
<path d="M196 184.192C196 183.783 195.631 183.451 195.177 183.451C194.722 183.451 194.354 183.783 194.354 184.192V186.212C194.354 186.622 194.722 186.953 195.177 186.953C195.631 186.953 196 186.622 196 186.212V184.192Z" fill="white"/>
<path d="M191.735 178.466C192.189 178.466 192.558 178.798 192.558 179.207V180.689C192.558 181.098 192.189 181.43 191.735 181.43C191.28 181.43 190.911 181.098 190.911 180.689V179.207C190.911 178.798 191.28 178.466 191.735 178.466Z" fill="white"/>
</g>
</g>
<rect x="155.75" y="155.75" width="58.5" height="58.5" rx="15.25" stroke="#F8F8F8" stroke-opacity="0.4" stroke-width="1.5" shape-rendering="crispEdges"/>
</g>
<rect opacity="0.1" x="219.75" y="91.75" width="58.5" height="122.5" rx="15.25" stroke="#F8F8F8" stroke-width="1.5"/>
<defs>
<filter id="filter0_f_2101_9712" x="3" y="0" width="304" height="304" filterUnits="userSpaceOnUse" color-interpolation-filters="sRGB">
<feFlood flood-opacity="0" result="BackgroundImageFix"/>
<feBlend mode="normal" in="SourceGraphic" in2="BackgroundImageFix" result="shape"/>
<feGaussianBlur stdDeviation="32" result="effect1_foregroundBlur_2101_9712"/>
</filter>
<filter id="filter1_di_2101_9712" x="147" y="155" width="76" height="100" filterUnits="userSpaceOnUse" color-interpolation-filters="sRGB">
<feFlood flood-opacity="0" result="BackgroundImageFix"/>
<feColorMatrix in="SourceAlpha" type="matrix" values="0 0 0 0 0 0 0 0 0 0 0 0 0 0 0 0 0 0 127 0" result="hardAlpha"/>
<feMorphology radius="16" operator="erode" in="SourceAlpha" result="effect1_dropShadow_2101_9712"/>
<feOffset dy="32"/>
<feGaussianBlur stdDeviation="12"/>
<feComposite in2="hardAlpha" operator="out"/>
<feColorMatrix type="matrix" values="0 0 0 0 0 0 0 0 0 0 0 0 0 0 0 0 0 0 0.4 0"/>
<feBlend mode="multiply" in2="BackgroundImageFix" result="effect1_dropShadow_2101_9712"/>
<feBlend mode="normal" in="SourceGraphic" in2="effect1_dropShadow_2101_9712" result="shape"/>
<feColorMatrix in="SourceAlpha" type="matrix" values="0 0 0 0 0 0 0 0 0 0 0 0 0 0 0 0 0 0 127 0" result="hardAlpha"/>
<feOffset/>
<feGaussianBlur stdDeviation="4"/>
<feComposite in2="hardAlpha" operator="arithmetic" k2="-1" k3="1"/>
<feColorMatrix type="matrix" values="0 0 0 0 0.972549 0 0 0 0 0.972549 0 0 0 0 0.972549 0 0 0 0.25 0"/>
<feBlend mode="normal" in2="shape" result="effect2_innerShadow_2101_9712"/>
</filter>
<filter id="filter2_di_2101_9712" x="147" y="147" width="76" height="104" filterUnits="userSpaceOnUse" color-interpolation-filters="sRGB">
<feFlood flood-opacity="0" result="BackgroundImageFix"/>
<feColorMatrix in="SourceAlpha" type="matrix" values="0 0 0 0 0 0 0 0 0 0 0 0 0 0 0 0 0 0 127 0" result="hardAlpha"/>
<feMorphology radius="16" operator="erode" in="SourceAlpha" result="effect1_dropShadow_2101_9712"/>
<feOffset dy="32"/>
<feGaussianBlur stdDeviation="12"/>
<feComposite in2="hardAlpha" operator="out"/>
<feColorMatrix type="matrix" values="0 0 0 0 0 0 0 0 0 0 0 0 0 0 0 0 0 0 0.4 0"/>
<feBlend mode="multiply" in2="BackgroundImageFix" result="effect1_dropShadow_2101_9712"/>
<feBlend mode="normal" in="SourceGraphic" in2="effect1_dropShadow_2101_9712" result="shape"/>
<feColorMatrix in="SourceAlpha" type="matrix" values="0 0 0 0 0 0 0 0 0 0 0 0 0 0 0 0 0 0 127 0" result="hardAlpha"/>
<feOffset/>
<feGaussianBlur stdDeviation="4"/>
<feComposite in2="hardAlpha" operator="arithmetic" k2="-1" k3="1"/>
<feColorMatrix type="matrix" values="0 0 0 0 0.972549 0 0 0 0 0.972549 0 0 0 0 0.972549 0 0 0 0.25 0"/>
<feBlend mode="normal" in2="shape" result="effect2_innerShadow_2101_9712"/>
</filter>
<radialGradient id="paint0_radial_2101_9712" cx="0" cy="0" r="1" gradientUnits="userSpaceOnUse" gradientTransform="translate(118.711 157.897) rotate(-2.66053) scale(244.305 155.823)">
<stop stop-color="#6B00FF" stop-opacity="0.77"/>
<stop offset="0.376681" stop-color="#8E3BFF" stop-opacity="0.25"/>
<stop offset="1" stop-color="white" stop-opacity="0"/>
</radialGradient>
<linearGradient id="paint1_linear_2101_9712" x1="121" y1="112.832" x2="121" y2="140.832" gradientUnits="userSpaceOnUse">
<stop stop-color="#F8F8F8" stop-opacity="0.9"/>
<stop offset="1" stop-color="#F8F8F8" stop-opacity="0.3"/>
</linearGradient>
<linearGradient id="paint2_linear_2101_9712" x1="186.878" y1="107" x2="186.878" y2="113.064" gradientUnits="userSpaceOnUse">
<stop stop-color="#F8F8F8" stop-opacity="0.9"/>
<stop offset="1" stop-color="#F8F8F8" stop-opacity="0.3"/>
</linearGradient>
<linearGradient id="paint3_linear_2101_9712" x1="184.303" y1="113.332" x2="184.303" y2="133.249" gradientUnits="userSpaceOnUse">
<stop stop-color="#F8F8F8" stop-opacity="0.9"/>
<stop offset="1" stop-color="#F8F8F8" stop-opacity="0.3"/>
</linearGradient>
<linearGradient id="paint4_linear_2101_9712" x1="120.999" y1="173.332" x2="120.999" y2="196.665" gradientUnits="userSpaceOnUse">
<stop stop-color="#F8F8F8" stop-opacity="0.9"/>
<stop offset="1" stop-color="#F8F8F8" stop-opacity="0.3"/>
</linearGradient>
<linearGradient id="paint5_linear_2101_9712" x1="185" y1="159" x2="207.621" y2="216.102" gradientUnits="userSpaceOnUse">
<stop stop-color="white" stop-opacity="0.4"/>
<stop offset="0.4" stop-color="white" stop-opacity="0.01"/>
<stop offset="0.6" stop-color="white" stop-opacity="0.01"/>
<stop offset="1" stop-color="white" stop-opacity="0.1"/>
</linearGradient>
<clipPath id="clip0_2101_9712">
<rect width="28" height="28" fill="white" transform="translate(107 107)"/>
</clipPath>
<clipPath id="clip1_2101_9712">
<rect x="155" y="155" width="60" height="60" rx="16" fill="white"/>
</clipPath>
</defs>
</svg>
