<svg width="29" height="38" viewBox="0 0 29 38" fill="none" xmlns="http://www.w3.org/2000/svg">
<path d="M14.4012 0C15.0549 0 15.5849 0.528907 15.5849 1.18135V6.49741C15.5849 7.14985 15.0549 7.67876 14.4012 7.67876C13.7475 7.67876 13.2175 7.14985 13.2175 6.49741V1.18135C13.2175 0.528907 13.7475 0 14.4012 0Z" fill="white"/>
<path d="M6.70726 12.2073C6.70726 11.5548 6.17731 11.0259 5.52359 11.0259C4.86987 11.0259 4.33993 11.5548 4.33993 12.2073V22.0518C4.33993 22.7043 4.86987 23.2332 5.52359 23.2332C6.17731 23.2332 6.70726 22.7043 6.70726 22.0518V12.2073Z" fill="white"/>
<path d="M2.17005 16.4404C2.17005 15.8423 1.68427 15.3575 1.08503 15.3575C0.485783 15.3575 0 15.8423 0 16.4404V22.1503C0 22.7483 0.485783 23.2332 1.08503 23.2332C1.68427 23.2332 2.17005 22.7483 2.17005 22.1503V16.4404Z" fill="white"/>
<path d="M6.70726 26.3834C6.70726 25.731 6.17731 25.2021 5.52359 25.2021C4.86987 25.2021 4.33993 25.731 4.33993 26.3834V27.9585C4.33993 28.611 4.86987 29.1399 5.52359 29.1399C6.17731 29.1399 6.70726 28.611 6.70726 27.9585V26.3834Z" fill="white"/>
<path d="M18.9389 28.1554C19.5926 28.1554 20.1225 28.6843 20.1225 29.3368V31.1088C20.1225 31.7612 19.5926 32.2901 18.9389 32.2901C18.2851 32.2901 17.7552 31.7612 17.7552 31.1088V29.3368C17.7552 28.6843 18.2851 28.1554 18.9389 28.1554Z" fill="white"/>
<path d="M15.5849 30.3212C15.5849 29.6688 15.0549 29.1399 14.4012 29.1399C13.7475 29.1399 13.2175 29.6688 13.2175 30.3212V36.8186C13.2175 37.4711 13.7475 38 14.4012 38C15.0549 38 15.5849 37.4711 15.5849 36.8186V30.3212Z" fill="white"/>
<path d="M23.3773 14.9637C23.9766 14.9637 24.4623 15.4485 24.4623 16.0466V28.057C24.4623 28.6551 23.9766 29.1399 23.3773 29.1399C22.7781 29.1399 22.2923 28.6551 22.2923 28.057V16.0466C22.2923 15.4485 22.7781 14.9637 23.3773 14.9637Z" fill="white"/>
<path d="M18.9265 6.06424C19.2225 6.06424 19.5064 6.18161 19.7157 6.39053C19.9251 6.59945 20.0427 6.8828 20.0427 7.17826V25.7451C20.0427 26.0406 19.9251 26.3239 19.7157 26.5328C19.5064 26.7417 19.2225 26.8591 18.9265 26.8591C18.6304 26.8591 18.3465 26.7417 18.1372 26.5328C17.9279 26.3239 17.8103 26.0406 17.8103 25.7451V19.6385L13.3415 15.1711V10.299C13.4382 10.0646 13.5915 9.85776 13.7878 9.69689C13.9424 9.58526 14.1204 9.51011 14.3083 9.4771C14.4963 9.44408 14.6893 9.45407 14.8728 9.5063C15.1709 9.59495 15.4232 9.79525 15.5767 10.0653C15.5767 10.0653 15.6132 10.1413 15.7272 14.6394C15.7272 14.6394 16.3005 15.1711 16.8221 15.1711C17.3437 15.1711 17.814 14.6394 17.814 14.6394L17.8103 7.17727C17.8105 6.88199 17.9282 6.59889 18.1375 6.39018C18.3468 6.18148 18.6306 6.06424 18.9265 6.06424Z" fill="white"/>
<path d="M10.7871 5.83332C10.5777 5.6244 10.2938 5.50703 9.99779 5.50703C9.70176 5.50703 9.41785 5.6244 9.20852 5.83332C8.99919 6.04224 8.88159 6.32559 8.88159 6.62104V32.058C8.88159 32.3535 8.99919 32.6368 9.20852 32.8457C9.41785 33.0547 9.70176 33.172 9.99779 33.172C10.2938 33.172 10.5777 33.0547 10.7871 32.8457C10.9964 32.6368 11.114 32.3535 11.114 32.058L11.2126 21.3016C11.2126 21.3016 11.6476 20.6848 12.2898 20.7279C12.4839 20.7461 12.6716 20.8069 12.8393 20.9061C13.007 21.0053 13.1506 21.1404 13.2598 21.3016L13.3742 26.2344C13.3742 26.2344 13.9662 26.9235 14.5103 26.9235C15.0544 26.9235 15.5511 26.2344 15.5511 26.2344L15.5993 20.4485L11.1872 16.0539L11.114 6.62104C11.114 6.32559 10.9964 6.04224 10.7871 5.83332Z" fill="white"/>
<path d="M29 17.8187C29 17.2206 28.5142 16.7358 27.915 16.7358C27.3157 16.7358 26.8299 17.2206 26.8299 17.8187V20.772C26.8299 21.3701 27.3157 21.8549 27.915 21.8549C28.5142 21.8549 29 21.3701 29 20.772V17.8187Z" fill="white"/>
<path d="M23.3773 9.45076C23.9766 9.45076 24.4623 9.93559 24.4623 10.5337V12.6995C24.4623 13.2975 23.9766 13.7824 23.3773 13.7824C22.7781 13.7824 22.2923 13.2975 22.2923 12.6995V10.5337C22.2923 9.93559 22.7781 9.45076 23.3773 9.45076Z" fill="white"/>
</svg>
