<svg width="304" height="278" viewBox="0 0 304 278" fill="none" xmlns="http://www.w3.org/2000/svg">
<g filter="url(#filter0_f_1204_148)">
<circle cx="163" cy="139" r="75" fill="url(#paint0_radial_1204_148)"/>
</g>
<g opacity="0.24">
<g filter="url(#filter1_i_1204_148)">
<path d="M248 203C248 187.536 260.536 175 276 175V175C291.464 175 304 187.536 304 203V203C304 218.464 291.464 231 276 231V231C260.536 231 248 218.464 248 203V203Z" fill="#F8F8F8" fill-opacity="0.03"/>
</g>
<path d="M276 175.5C291.188 175.5 303.5 187.812 303.5 203C303.5 218.188 291.188 230.5 276 230.5C260.812 230.5 248.5 218.188 248.5 203C248.5 187.812 260.812 175.5 276 175.5Z" stroke="#F8F8F8" stroke-opacity="0.35"/>
</g>
<g opacity="0.24">
<g filter="url(#filter2_i_1204_148)">
<path d="M1 75C1 59.536 13.536 47 29 47V47C44.464 47 57 59.536 57 75V75C57 90.464 44.464 103 29 103V103C13.536 103 1 90.464 1 75V75Z" fill="#F8F8F8" fill-opacity="0.03"/>
</g>
<path d="M29 47.5C44.1878 47.5 56.5 59.8122 56.5 75C56.5 90.1878 44.1878 102.5 29 102.5C13.8122 102.5 1.5 90.1878 1.5 75C1.5 59.8122 13.8122 47.5 29 47.5Z" stroke="#F8F8F8" stroke-opacity="0.35"/>
</g>
<g opacity="0.48">
<g filter="url(#filter3_i_1204_148)">
<path d="M1 139C1 123.536 13.536 111 29 111V111C44.464 111 57 123.536 57 139V139C57 154.464 44.464 167 29 167V167C13.536 167 1 154.464 1 139V139Z" fill="#F8F8F8" fill-opacity="0.03"/>
</g>
<path d="M29 111.5C44.1878 111.5 56.5 123.812 56.5 139C56.5 154.188 44.1878 166.5 29 166.5C13.8122 166.5 1.5 154.188 1.5 139C1.5 123.812 13.8122 111.5 29 111.5Z" stroke="#F8F8F8" stroke-opacity="0.2"/>
</g>
<g opacity="0.24">
<g filter="url(#filter4_i_1204_148)">
<path d="M248 75C248 59.536 260.536 47 276 47V47C291.464 47 304 59.536 304 75V75C304 90.464 291.464 103 276 103V103C260.536 103 248 90.464 248 75V75Z" fill="#F8F8F8" fill-opacity="0.03"/>
</g>
<path d="M276 47.5C291.188 47.5 303.5 59.8122 303.5 75C303.5 90.1878 291.188 102.5 276 102.5C260.812 102.5 248.5 90.1878 248.5 75C248.5 59.8122 260.812 47.5 276 47.5Z" stroke="#F8F8F8" stroke-opacity="0.35"/>
</g>
<g opacity="0.48">
<g filter="url(#filter5_i_1204_148)">
<path d="M248 139C248 123.536 260.536 111 276 111V111C291.464 111 304 123.536 304 139V139C304 154.464 291.464 167 276 167V167C260.536 167 248 154.464 248 139V139Z" fill="#F8F8F8" fill-opacity="0.03"/>
</g>
<path d="M276 111.5C291.188 111.5 303.5 123.812 303.5 139C303.5 154.188 291.188 166.5 276 166.5C260.812 166.5 248.5 154.188 248.5 139C248.5 123.812 260.812 111.5 276 111.5Z" stroke="#F8F8F8" stroke-opacity="0.2"/>
</g>
<path d="M184.5 138.5H201.264C207.892 138.5 213.264 133.127 213.264 126.5V86.5C213.264 79.8726 218.637 74.5 225.264 74.5H242.5" stroke="url(#paint1_linear_1204_148)"/>
<path d="M184.5 138.5H201.264C207.892 138.5 213.264 143.873 213.264 150.5V190.5C213.264 197.127 218.637 202.5 225.264 202.5H242.5" stroke="url(#paint2_linear_1204_148)"/>
<path d="M119.5 138.5H103.728C97.1002 138.5 91.7276 133.127 91.7276 126.5V86.5C91.7276 79.8726 86.3551 74.5 79.7276 74.5H63.5" stroke="url(#paint3_linear_1204_148)"/>
<path d="M119.5 138.5H103.728C97.1002 138.5 91.7276 143.873 91.7276 150.5V190.5C91.7276 197.127 86.3551 202.5 79.7276 202.5H63.5" stroke="url(#paint4_linear_1204_148)"/>
<rect x="217" y="138" width="24" height="1" fill="url(#paint5_linear_1204_148)"/>
<rect x="64" y="138" width="24" height="1" fill="url(#paint6_linear_1204_148)"/>
<rect x="121" y="84" width="63" height="1" fill="url(#paint7_linear_1204_148)"/>
<rect x="121" y="193" width="63" height="1" fill="url(#paint8_linear_1204_148)"/>
<g opacity="0.24">
<g filter="url(#filter6_i_1204_148)">
<path d="M1 203C1 187.536 13.536 175 29 175V175C44.464 175 57 187.536 57 203V203C57 218.464 44.464 231 29 231V231C13.536 231 1 218.464 1 203V203Z" fill="#F8F8F8" fill-opacity="0.03"/>
</g>
<path d="M29 175.5C44.1878 175.5 56.5 187.812 56.5 203C56.5 218.188 44.1878 230.5 29 230.5C13.8122 230.5 1.5 218.188 1.5 203C1.5 187.812 13.8122 175.5 29 175.5Z" stroke="#F8F8F8" stroke-opacity="0.35"/>
</g>
<path d="M278.119 137.258L286.406 127.625H284.442L277.246 135.989L271.499 127.625H264.871L273.562 140.273L264.871 150.375H266.835L274.433 141.542L280.502 150.375H287.131L278.119 137.258ZM275.429 140.384L274.549 139.125L267.542 129.104H270.559L276.213 137.191L277.093 138.45L284.443 148.964H281.427L275.43 140.385L275.429 140.384Z" fill="url(#paint9_linear_1204_148)" fill-opacity="0.5"/>
<path d="M282.304 192.5H278.689L278.303 192.883L276.464 196.393L275.927 196.703H269.699V201.949H273.027L273.373 202.296L269.699 209.309V213.5L273.316 213.498L273.703 213.114L275.546 209.602L276.072 209.299H282.304V204.055H278.966L278.629 203.718L282.304 196.701" fill="url(#paint10_linear_1204_148)" fill-opacity="0.5"/>
<path d="M32.1579 129.207C33.0635 128.075 33.6778 126.554 33.5159 125C32.1903 125.066 30.5733 125.874 29.637 127.008C28.7961 127.979 28.0524 129.563 28.2458 131.051C29.7333 131.18 31.2199 130.308 32.1579 129.207Z" fill="url(#paint11_linear_1204_148)" fill-opacity="0.5"/>
<path d="M33.5003 131.345C31.3399 131.216 29.5024 132.57 28.4708 132.57C27.4392 132.57 25.858 131.409 24.1492 131.44C21.9249 131.472 19.8608 132.731 18.732 134.731C16.4107 138.732 18.1195 144.668 20.377 147.927C21.4734 149.539 22.7947 151.315 24.5359 151.251C26.1809 151.186 26.8258 150.186 28.8252 150.186C30.8245 150.186 31.4038 151.251 33.145 151.218C34.951 151.186 36.0798 149.605 37.1762 147.991C38.4335 146.153 38.9489 144.379 38.9813 144.281C38.9489 144.249 35.4988 142.926 35.4673 138.958C35.4349 135.636 38.1754 134.055 38.3049 133.956C36.757 131.667 34.3385 131.409 33.5003 131.345Z" fill="url(#paint12_linear_1204_148)" fill-opacity="0.5"/>
<path d="M29 64.5C23.0848 64.5 18.5 68.8327 18.5 74.685C18.5 77.7465 19.7548 80.391 21.7977 82.218C21.9695 82.3717 22.073 82.5863 22.0797 82.8165L22.1367 84.684C22.1547 85.2795 22.7705 85.6672 23.3157 85.4265L25.4 84.5062C25.577 84.4282 25.775 84.414 25.961 84.465C26.9187 84.7283 27.938 84.8685 29.0007 84.8685C34.916 84.8685 39.5007 80.5358 39.5007 74.6835C39.5007 68.8313 34.9152 64.5 29 64.5ZM35.3053 72.3368L32.2205 77.2305C31.73 78.009 30.6792 78.2025 29.9427 77.6505L27.4895 75.8107C27.2645 75.642 26.9548 75.6427 26.7305 75.813L23.417 78.3278C22.9745 78.663 22.3978 78.1342 22.6933 77.6647L25.778 72.771C26.2685 71.9925 27.3193 71.799 28.0557 72.351L30.509 74.1908C30.734 74.3595 31.0437 74.3588 31.268 74.1885L34.5807 71.6737C35.0232 71.3385 35.6007 71.8672 35.3053 72.3368Z" fill="url(#paint13_linear_1204_148)" fill-opacity="0.5"/>
<g clip-path="url(#clip0_1204_148)">
<path d="M17.0002 206.923C17.0002 207.221 17.1082 207.446 17.3242 207.599C17.4225 207.672 17.5345 207.723 17.6535 207.751C17.7725 207.779 17.8958 207.783 18.0162 207.761C18.2475 207.716 18.4095 207.634 18.5022 207.515C18.5955 207.396 18.6422 207.199 18.6422 206.923V203.685C18.6443 203.576 18.6241 203.468 18.5828 203.367C18.5415 203.266 18.4801 203.174 18.4022 203.098C18.3258 203.02 18.2344 202.959 18.1334 202.917C18.0325 202.876 17.9242 202.856 17.8152 202.858C17.7081 202.858 17.6021 202.879 17.5033 202.92C17.4046 202.961 17.3151 203.022 17.2402 203.098C17.1622 203.174 17.1008 203.266 17.0595 203.367C17.0182 203.468 16.998 203.576 17.0002 203.685V206.923ZM19.5692 208.308C19.5692 208.524 19.6455 208.686 19.7982 208.794C19.9502 208.902 20.1455 208.956 20.3842 208.956C20.6302 208.956 20.8292 208.902 20.9812 208.794C21.1345 208.686 21.2112 208.524 21.2112 208.308V200.758C21.2116 200.651 21.1907 200.545 21.1494 200.446C21.1082 200.348 21.0476 200.258 20.9712 200.183C20.8948 200.105 20.8034 200.044 20.7024 200.002C20.6015 199.961 20.4932 199.941 20.3842 199.943C20.2771 199.943 20.1711 199.964 20.0723 200.005C19.9736 200.046 19.8841 200.107 19.8092 200.183C19.7326 200.258 19.6719 200.348 19.6307 200.447C19.5894 200.546 19.5685 200.652 19.5692 200.759V208.309V208.308ZM22.1262 208.666C22.1262 208.881 22.2045 209.043 22.3612 209.151C22.5178 209.259 22.7188 209.313 22.9642 209.313C23.2022 209.313 23.3975 209.259 23.5502 209.151C23.7035 209.043 23.7798 208.881 23.7792 208.666V201.775C23.7792 201.544 23.6992 201.347 23.5392 201.183C23.4655 201.105 23.3763 201.042 23.2774 201C23.1784 200.958 23.0718 200.936 22.9642 200.937C22.8538 200.935 22.7443 200.956 22.6424 200.998C22.5406 201.041 22.4485 201.104 22.3722 201.183C22.2925 201.26 22.2296 201.352 22.1873 201.453C22.1449 201.555 22.1241 201.665 22.1262 201.775V208.666ZM24.6952 208.699C24.6952 209.108 24.9705 209.313 25.5212 209.313C26.0725 209.313 26.3482 209.108 26.3482 208.699V197.531C26.3482 196.906 26.1582 196.552 25.7782 196.471C25.5322 196.411 25.2902 196.481 25.0522 196.682C24.8142 196.883 24.6952 197.166 24.6952 197.531V208.699ZM27.3082 209.023V196.873C27.3082 196.485 27.4235 196.254 27.6542 196.18C29.2338 195.802 30.8978 196.024 32.3222 196.805C33.2884 197.326 34.1084 198.081 34.7072 199.001C35.3104 199.918 35.6733 200.972 35.7621 202.066C36.2162 201.873 36.7002 201.776 37.2142 201.776C38.2562 201.776 39.1478 202.145 39.8892 202.882C40.6292 203.619 40.9995 204.505 41.0002 205.539C41.0002 206.582 40.6298 207.472 39.8892 208.209C39.1485 208.946 38.2605 209.315 37.2252 209.314L27.5092 209.304C27.445 209.284 27.3912 209.239 27.3592 209.18C27.3296 209.133 27.3124 209.08 27.3092 209.024L27.3082 209.023Z" fill="url(#paint14_linear_1204_148)" fill-opacity="0.5"/>
</g>
<path d="M281.9 73.9C278.7 72 273.35 71.8 270.3 72.75C269.8 72.9 269.3 72.6 269.15 72.15C269 71.65 269.3 71.15 269.75 71C273.3 69.95 279.15 70.15 282.85 72.35C283.3 72.6 283.45 73.2 283.2 73.65C282.95 74 282.35 74.15 281.9 73.9ZM281.8 76.7C281.55 77.05 281.1 77.2 280.75 76.95C278.05 75.3 273.95 74.8 270.8 75.8C270.4 75.9 269.95 75.7 269.85 75.3C269.75 74.9 269.95 74.45 270.35 74.35C274 73.25 278.5 73.8 281.6 75.7C281.9 75.85 282.05 76.35 281.8 76.7ZM280.6 79.45C280.4 79.75 280.05 79.85 279.75 79.65C277.4 78.2 274.45 77.9 270.95 78.7C270.6 78.8 270.3 78.55 270.2 78.25C270.1 77.9 270.35 77.6 270.65 77.5C274.45 76.65 277.75 77 280.35 78.6C280.7 78.75 280.75 79.15 280.6 79.45ZM276 65C274.687 65 273.386 65.2587 272.173 65.7612C270.96 66.2638 269.858 67.0003 268.929 67.9289C267.054 69.8043 266 72.3478 266 75C266 77.6522 267.054 80.1957 268.929 82.0711C269.858 82.9997 270.96 83.7362 272.173 84.2388C273.386 84.7413 274.687 85 276 85C278.652 85 281.196 83.9464 283.071 82.0711C284.946 80.1957 286 77.6522 286 75C286 73.6868 285.741 72.3864 285.239 71.1732C284.736 69.9599 284 68.8575 283.071 67.9289C282.142 67.0003 281.04 66.2638 279.827 65.7612C278.614 65.2587 277.313 65 276 65Z" fill="url(#paint15_linear_1204_148)" fill-opacity="0.5"/>
<g filter="url(#filter7_di_1204_148)">
<g clip-path="url(#clip1_1204_148)">
<g filter="url(#filter8_di_1204_148)">
<rect x="126" y="113" width="52" height="52" rx="26" fill="#F8F8F8" fill-opacity="0.01" shape-rendering="crispEdges"/>
<rect x="126" y="113" width="52" height="52" rx="26" fill="#121212" fill-opacity="0.3" shape-rendering="crispEdges"/>
<rect x="126.75" y="113.75" width="50.5" height="50.5" rx="25.25" stroke="url(#paint16_linear_1204_148)" stroke-opacity="0.25" stroke-width="1.5" shape-rendering="crispEdges"/>
<path d="M151.925 124C152.421 124 152.823 124.404 152.823 124.902V128.959C152.823 129.456 152.421 129.86 151.925 129.86C151.429 129.86 151.027 129.456 151.027 128.959V124.902C151.027 124.404 151.429 124 151.925 124Z" fill="white"/>
<path d="M146.088 133.316C146.088 132.818 145.686 132.415 145.19 132.415C144.694 132.415 144.292 132.818 144.292 133.316V140.829C144.292 141.327 144.694 141.731 145.19 141.731C145.686 141.731 146.088 141.327 146.088 140.829V133.316Z" fill="white"/>
<path d="M142.646 136.547C142.646 136.09 142.278 135.72 141.823 135.72C141.369 135.72 141 136.09 141 136.547V140.904C141 141.361 141.369 141.731 141.823 141.731C142.278 141.731 142.646 141.361 142.646 140.904V136.547Z" fill="white"/>
<path d="M146.088 144.135C146.088 143.637 145.686 143.233 145.19 143.233C144.694 143.233 144.292 143.637 144.292 144.135V145.337C144.292 145.835 144.694 146.238 145.19 146.238C145.686 146.238 146.088 145.835 146.088 145.337V144.135Z" fill="white"/>
<path d="M155.367 145.487C155.863 145.487 156.265 145.891 156.265 146.389V147.741C156.265 148.239 155.863 148.642 155.367 148.642C154.871 148.642 154.469 148.239 154.469 147.741V146.389C154.469 145.891 154.871 145.487 155.367 145.487Z" fill="white"/>
<path d="M152.823 147.14C152.823 146.642 152.421 146.238 151.925 146.238C151.429 146.238 151.027 146.642 151.027 147.14V152.098C151.027 152.596 151.429 153 151.925 153C152.421 153 152.823 152.596 152.823 152.098V147.14Z" fill="white"/>
<path d="M158.735 135.42C159.189 135.42 159.558 135.79 159.558 136.246V145.412C159.558 145.868 159.189 146.238 158.735 146.238C158.28 146.238 157.911 145.868 157.911 145.412V136.246C157.911 135.79 158.28 135.42 158.735 135.42Z" fill="white"/>
<path d="M155.358 128.628C155.583 128.628 155.798 128.718 155.957 128.877C156.116 129.036 156.205 129.253 156.205 129.478V143.648C156.205 143.873 156.116 144.089 155.957 144.249C155.798 144.408 155.583 144.498 155.358 144.498C155.133 144.498 154.918 144.408 154.759 144.249C154.6 144.089 154.511 143.873 154.511 143.648V138.987L151.121 135.578V131.86C151.195 131.681 151.311 131.523 151.46 131.4C151.577 131.315 151.712 131.258 151.855 131.233C151.997 131.207 152.144 131.215 152.283 131.255C152.509 131.322 152.7 131.475 152.817 131.681C152.817 131.681 152.844 131.739 152.931 135.172C152.931 135.172 153.366 135.578 153.762 135.578C154.157 135.578 154.514 135.172 154.514 135.172L154.511 129.477C154.511 129.252 154.601 129.036 154.76 128.877C154.918 128.717 155.134 128.628 155.358 128.628Z" fill="white"/>
<path d="M149.183 128.452C149.024 128.292 148.809 128.203 148.585 128.203C148.36 128.203 148.145 128.292 147.986 128.452C147.827 128.611 147.738 128.827 147.738 129.053V148.465C147.738 148.691 147.827 148.907 147.986 149.066C148.145 149.226 148.36 149.315 148.585 149.315C148.809 149.315 149.024 149.226 149.183 149.066C149.342 148.907 149.431 148.691 149.431 148.465L149.506 140.257C149.506 140.257 149.836 139.786 150.323 139.819C150.471 139.833 150.613 139.879 150.74 139.955C150.867 140.03 150.976 140.133 151.059 140.257L151.146 144.021C151.146 144.021 151.595 144.547 152.008 144.547C152.421 144.547 152.797 144.021 152.797 144.021L152.834 139.605L149.487 136.252L149.431 129.053C149.431 128.827 149.342 128.611 149.183 128.452Z" fill="white"/>
<path d="M163 137.598C163 137.142 162.631 136.772 162.177 136.772C161.722 136.772 161.354 137.142 161.354 137.598V139.852C161.354 140.309 161.722 140.679 162.177 140.679C162.631 140.679 163 140.309 163 139.852V137.598Z" fill="white"/>
<path d="M158.735 131.212C159.189 131.212 159.558 131.582 159.558 132.039V133.692C159.558 134.148 159.189 134.518 158.735 134.518C158.28 134.518 157.911 134.148 157.911 133.692V132.039C157.911 131.582 158.28 131.212 158.735 131.212Z" fill="white"/>
</g>
</g>
<rect x="122.75" y="109.75" width="58.5" height="58.5" rx="29.25" stroke="#F8F8F8" stroke-opacity="0.4" stroke-width="1.5" shape-rendering="crispEdges"/>
</g>
<defs>
<filter id="filter0_f_1204_148" x="24" y="0" width="278" height="278" filterUnits="userSpaceOnUse" color-interpolation-filters="sRGB">
<feFlood flood-opacity="0" result="BackgroundImageFix"/>
<feBlend mode="normal" in="SourceGraphic" in2="BackgroundImageFix" result="shape"/>
<feGaussianBlur stdDeviation="32" result="effect1_foregroundBlur_1204_148"/>
</filter>
<filter id="filter1_i_1204_148" x="248" y="175" width="58" height="60" filterUnits="userSpaceOnUse" color-interpolation-filters="sRGB">
<feFlood flood-opacity="0" result="BackgroundImageFix"/>
<feBlend mode="normal" in="SourceGraphic" in2="BackgroundImageFix" result="shape"/>
<feColorMatrix in="SourceAlpha" type="matrix" values="0 0 0 0 0 0 0 0 0 0 0 0 0 0 0 0 0 0 127 0" result="hardAlpha"/>
<feOffset dx="2" dy="4"/>
<feGaussianBlur stdDeviation="8"/>
<feComposite in2="hardAlpha" operator="arithmetic" k2="-1" k3="1"/>
<feColorMatrix type="matrix" values="0 0 0 0 0.972549 0 0 0 0 0.972549 0 0 0 0 0.972549 0 0 0 0.1 0"/>
<feBlend mode="normal" in2="shape" result="effect1_innerShadow_1204_148"/>
</filter>
<filter id="filter2_i_1204_148" x="1" y="47" width="58" height="60" filterUnits="userSpaceOnUse" color-interpolation-filters="sRGB">
<feFlood flood-opacity="0" result="BackgroundImageFix"/>
<feBlend mode="normal" in="SourceGraphic" in2="BackgroundImageFix" result="shape"/>
<feColorMatrix in="SourceAlpha" type="matrix" values="0 0 0 0 0 0 0 0 0 0 0 0 0 0 0 0 0 0 127 0" result="hardAlpha"/>
<feOffset dx="2" dy="4"/>
<feGaussianBlur stdDeviation="8"/>
<feComposite in2="hardAlpha" operator="arithmetic" k2="-1" k3="1"/>
<feColorMatrix type="matrix" values="0 0 0 0 0.972549 0 0 0 0 0.972549 0 0 0 0 0.972549 0 0 0 0.1 0"/>
<feBlend mode="normal" in2="shape" result="effect1_innerShadow_1204_148"/>
</filter>
<filter id="filter3_i_1204_148" x="1" y="111" width="58" height="60" filterUnits="userSpaceOnUse" color-interpolation-filters="sRGB">
<feFlood flood-opacity="0" result="BackgroundImageFix"/>
<feBlend mode="normal" in="SourceGraphic" in2="BackgroundImageFix" result="shape"/>
<feColorMatrix in="SourceAlpha" type="matrix" values="0 0 0 0 0 0 0 0 0 0 0 0 0 0 0 0 0 0 127 0" result="hardAlpha"/>
<feOffset dx="2" dy="4"/>
<feGaussianBlur stdDeviation="8"/>
<feComposite in2="hardAlpha" operator="arithmetic" k2="-1" k3="1"/>
<feColorMatrix type="matrix" values="0 0 0 0 0.972549 0 0 0 0 0.972549 0 0 0 0 0.972549 0 0 0 0.1 0"/>
<feBlend mode="normal" in2="shape" result="effect1_innerShadow_1204_148"/>
</filter>
<filter id="filter4_i_1204_148" x="248" y="47" width="58" height="60" filterUnits="userSpaceOnUse" color-interpolation-filters="sRGB">
<feFlood flood-opacity="0" result="BackgroundImageFix"/>
<feBlend mode="normal" in="SourceGraphic" in2="BackgroundImageFix" result="shape"/>
<feColorMatrix in="SourceAlpha" type="matrix" values="0 0 0 0 0 0 0 0 0 0 0 0 0 0 0 0 0 0 127 0" result="hardAlpha"/>
<feOffset dx="2" dy="4"/>
<feGaussianBlur stdDeviation="8"/>
<feComposite in2="hardAlpha" operator="arithmetic" k2="-1" k3="1"/>
<feColorMatrix type="matrix" values="0 0 0 0 0.972549 0 0 0 0 0.972549 0 0 0 0 0.972549 0 0 0 0.1 0"/>
<feBlend mode="normal" in2="shape" result="effect1_innerShadow_1204_148"/>
</filter>
<filter id="filter5_i_1204_148" x="248" y="111" width="58" height="60" filterUnits="userSpaceOnUse" color-interpolation-filters="sRGB">
<feFlood flood-opacity="0" result="BackgroundImageFix"/>
<feBlend mode="normal" in="SourceGraphic" in2="BackgroundImageFix" result="shape"/>
<feColorMatrix in="SourceAlpha" type="matrix" values="0 0 0 0 0 0 0 0 0 0 0 0 0 0 0 0 0 0 127 0" result="hardAlpha"/>
<feOffset dx="2" dy="4"/>
<feGaussianBlur stdDeviation="8"/>
<feComposite in2="hardAlpha" operator="arithmetic" k2="-1" k3="1"/>
<feColorMatrix type="matrix" values="0 0 0 0 0.972549 0 0 0 0 0.972549 0 0 0 0 0.972549 0 0 0 0.1 0"/>
<feBlend mode="normal" in2="shape" result="effect1_innerShadow_1204_148"/>
</filter>
<filter id="filter6_i_1204_148" x="1" y="175" width="58" height="60" filterUnits="userSpaceOnUse" color-interpolation-filters="sRGB">
<feFlood flood-opacity="0" result="BackgroundImageFix"/>
<feBlend mode="normal" in="SourceGraphic" in2="BackgroundImageFix" result="shape"/>
<feColorMatrix in="SourceAlpha" type="matrix" values="0 0 0 0 0 0 0 0 0 0 0 0 0 0 0 0 0 0 127 0" result="hardAlpha"/>
<feOffset dx="2" dy="4"/>
<feGaussianBlur stdDeviation="8"/>
<feComposite in2="hardAlpha" operator="arithmetic" k2="-1" k3="1"/>
<feColorMatrix type="matrix" values="0 0 0 0 0.972549 0 0 0 0 0.972549 0 0 0 0 0.972549 0 0 0 0.1 0"/>
<feBlend mode="normal" in2="shape" result="effect1_innerShadow_1204_148"/>
</filter>
<filter id="filter7_di_1204_148" x="114" y="109" width="76" height="100" filterUnits="userSpaceOnUse" color-interpolation-filters="sRGB">
<feFlood flood-opacity="0" result="BackgroundImageFix"/>
<feColorMatrix in="SourceAlpha" type="matrix" values="0 0 0 0 0 0 0 0 0 0 0 0 0 0 0 0 0 0 127 0" result="hardAlpha"/>
<feMorphology radius="16" operator="erode" in="SourceAlpha" result="effect1_dropShadow_1204_148"/>
<feOffset dy="32"/>
<feGaussianBlur stdDeviation="12"/>
<feComposite in2="hardAlpha" operator="out"/>
<feColorMatrix type="matrix" values="0 0 0 0 0 0 0 0 0 0 0 0 0 0 0 0 0 0 0.4 0"/>
<feBlend mode="multiply" in2="BackgroundImageFix" result="effect1_dropShadow_1204_148"/>
<feBlend mode="normal" in="SourceGraphic" in2="effect1_dropShadow_1204_148" result="shape"/>
<feColorMatrix in="SourceAlpha" type="matrix" values="0 0 0 0 0 0 0 0 0 0 0 0 0 0 0 0 0 0 127 0" result="hardAlpha"/>
<feOffset/>
<feGaussianBlur stdDeviation="4"/>
<feComposite in2="hardAlpha" operator="arithmetic" k2="-1" k3="1"/>
<feColorMatrix type="matrix" values="0 0 0 0 0.972549 0 0 0 0 0.972549 0 0 0 0 0.972549 0 0 0 0.25 0"/>
<feBlend mode="normal" in2="shape" result="effect2_innerShadow_1204_148"/>
</filter>
<filter id="filter8_di_1204_148" x="114" y="101" width="76" height="104" filterUnits="userSpaceOnUse" color-interpolation-filters="sRGB">
<feFlood flood-opacity="0" result="BackgroundImageFix"/>
<feColorMatrix in="SourceAlpha" type="matrix" values="0 0 0 0 0 0 0 0 0 0 0 0 0 0 0 0 0 0 127 0" result="hardAlpha"/>
<feMorphology radius="16" operator="erode" in="SourceAlpha" result="effect1_dropShadow_1204_148"/>
<feOffset dy="32"/>
<feGaussianBlur stdDeviation="12"/>
<feComposite in2="hardAlpha" operator="out"/>
<feColorMatrix type="matrix" values="0 0 0 0 0 0 0 0 0 0 0 0 0 0 0 0 0 0 0.4 0"/>
<feBlend mode="multiply" in2="BackgroundImageFix" result="effect1_dropShadow_1204_148"/>
<feBlend mode="normal" in="SourceGraphic" in2="effect1_dropShadow_1204_148" result="shape"/>
<feColorMatrix in="SourceAlpha" type="matrix" values="0 0 0 0 0 0 0 0 0 0 0 0 0 0 0 0 0 0 127 0" result="hardAlpha"/>
<feOffset/>
<feGaussianBlur stdDeviation="4"/>
<feComposite in2="hardAlpha" operator="arithmetic" k2="-1" k3="1"/>
<feColorMatrix type="matrix" values="0 0 0 0 0.972549 0 0 0 0 0.972549 0 0 0 0 0.972549 0 0 0 0.25 0"/>
<feBlend mode="normal" in2="shape" result="effect2_innerShadow_1204_148"/>
</filter>
<radialGradient id="paint0_radial_1204_148" cx="0" cy="0" r="1" gradientUnits="userSpaceOnUse" gradientTransform="translate(74.8069 150.296) rotate(45) scale(199.677 210.751)">
<stop stop-color="#572799"/>
<stop offset="0.45572" stop-color="#572799" stop-opacity="0.65"/>
<stop offset="1" stop-color="#572799" stop-opacity="0"/>
</radialGradient>
<linearGradient id="paint1_linear_1204_148" x1="242.5" y1="74" x2="169.409" y2="131.287" gradientUnits="userSpaceOnUse">
<stop stop-color="#838AA7" stop-opacity="0"/>
<stop offset="1" stop-color="#838AA7" stop-opacity="0.48"/>
</linearGradient>
<linearGradient id="paint2_linear_1204_148" x1="242.5" y1="203" x2="169.409" y2="145.713" gradientUnits="userSpaceOnUse">
<stop stop-color="#838AA7" stop-opacity="0"/>
<stop offset="1" stop-color="#838AA7" stop-opacity="0.48"/>
</linearGradient>
<linearGradient id="paint3_linear_1204_148" x1="63.5" y1="74" x2="135.939" y2="128.818" gradientUnits="userSpaceOnUse">
<stop stop-color="#838AA7" stop-opacity="0"/>
<stop offset="1" stop-color="#838AA7" stop-opacity="0.48"/>
</linearGradient>
<linearGradient id="paint4_linear_1204_148" x1="63.5" y1="203" x2="135.939" y2="148.182" gradientUnits="userSpaceOnUse">
<stop stop-color="#838AA7" stop-opacity="0"/>
<stop offset="1" stop-color="#838AA7" stop-opacity="0.48"/>
</linearGradient>
<linearGradient id="paint5_linear_1204_148" x1="217" y1="138.5" x2="241" y2="138.5" gradientUnits="userSpaceOnUse">
<stop stop-color="#838AA7" stop-opacity="0"/>
<stop offset="0.49" stop-color="#838AA7" stop-opacity="0.24"/>
<stop offset="0.99" stop-color="#838AA7" stop-opacity="0"/>
</linearGradient>
<linearGradient id="paint6_linear_1204_148" x1="64" y1="138.5" x2="88" y2="138.5" gradientUnits="userSpaceOnUse">
<stop stop-color="#838AA7" stop-opacity="0"/>
<stop offset="0.49" stop-color="#838AA7" stop-opacity="0.24"/>
<stop offset="0.99" stop-color="#838AA7" stop-opacity="0"/>
</linearGradient>
<linearGradient id="paint7_linear_1204_148" x1="121" y1="84.5" x2="184" y2="84.5" gradientUnits="userSpaceOnUse">
<stop stop-color="#838AA7" stop-opacity="0"/>
<stop offset="0.49" stop-color="#838AA7" stop-opacity="0.24"/>
<stop offset="0.99" stop-color="#838AA7" stop-opacity="0"/>
</linearGradient>
<linearGradient id="paint8_linear_1204_148" x1="121" y1="193.5" x2="184" y2="193.5" gradientUnits="userSpaceOnUse">
<stop stop-color="#838AA7" stop-opacity="0"/>
<stop offset="0.49" stop-color="#838AA7" stop-opacity="0.24"/>
<stop offset="0.99" stop-color="#838AA7" stop-opacity="0"/>
</linearGradient>
<linearGradient id="paint9_linear_1204_148" x1="276.001" y1="127.625" x2="276.001" y2="150.375" gradientUnits="userSpaceOnUse">
<stop stop-color="#F8F8F8" stop-opacity="0.9"/>
<stop offset="1" stop-color="#F8F8F8" stop-opacity="0.3"/>
</linearGradient>
<linearGradient id="paint10_linear_1204_148" x1="276.002" y1="192.5" x2="276.002" y2="213.5" gradientUnits="userSpaceOnUse">
<stop stop-color="#F8F8F8" stop-opacity="0.9"/>
<stop offset="1" stop-color="#F8F8F8" stop-opacity="0.3"/>
</linearGradient>
<linearGradient id="paint11_linear_1204_148" x1="30.8783" y1="125" x2="30.8783" y2="131.064" gradientUnits="userSpaceOnUse">
<stop stop-color="#F8F8F8" stop-opacity="0.9"/>
<stop offset="1" stop-color="#F8F8F8" stop-opacity="0.3"/>
</linearGradient>
<linearGradient id="paint12_linear_1204_148" x1="28.3031" y1="131.336" x2="28.3031" y2="151.252" gradientUnits="userSpaceOnUse">
<stop stop-color="#F8F8F8" stop-opacity="0.9"/>
<stop offset="1" stop-color="#F8F8F8" stop-opacity="0.3"/>
</linearGradient>
<linearGradient id="paint13_linear_1204_148" x1="29.0004" y1="64.5" x2="29.0004" y2="85.4989" gradientUnits="userSpaceOnUse">
<stop stop-color="#F8F8F8" stop-opacity="0.9"/>
<stop offset="1" stop-color="#F8F8F8" stop-opacity="0.3"/>
</linearGradient>
<linearGradient id="paint14_linear_1204_148" x1="29.0001" y1="196" x2="29" y2="220" gradientUnits="userSpaceOnUse">
<stop stop-color="#F8F8F8" stop-opacity="0.9"/>
<stop offset="1" stop-color="#F8F8F8" stop-opacity="0.3"/>
</linearGradient>
<linearGradient id="paint15_linear_1204_148" x1="276" y1="65" x2="276" y2="85" gradientUnits="userSpaceOnUse">
<stop stop-color="#F8F8F8" stop-opacity="0.9"/>
<stop offset="1" stop-color="#F8F8F8" stop-opacity="0.3"/>
</linearGradient>
<linearGradient id="paint16_linear_1204_148" x1="152" y1="113" x2="174.621" y2="170.102" gradientUnits="userSpaceOnUse">
<stop stop-color="white" stop-opacity="0.4"/>
<stop offset="0.4" stop-color="white" stop-opacity="0.01"/>
<stop offset="0.6" stop-color="white" stop-opacity="0.01"/>
<stop offset="1" stop-color="white" stop-opacity="0.1"/>
</linearGradient>
<clipPath id="clip0_1204_148">
<rect width="24" height="24" fill="white" transform="translate(17 191)"/>
</clipPath>
<clipPath id="clip1_1204_148">
<rect x="122" y="109" width="60" height="60" rx="30" fill="white"/>
</clipPath>
</defs>
</svg>
